<svg width="9" height="8" viewBox="0 0 9 8" fill="none" xmlns="http://www.w3.org/2000/svg">
<path d="M5.34825 0.276912C5.39175 0.319289 5.57775 0.479299 5.73075 0.628349C6.693 1.50219 8.268 3.78178 8.74875 4.97491C8.826 5.15611 8.9895 5.61422 9 5.85899C9 6.09352 8.946 6.3171 8.8365 6.53044C8.6835 6.7964 8.44275 7.00974 8.1585 7.12664C7.96125 7.2019 7.371 7.3188 7.3605 7.3188C6.71475 7.4357 5.6655 7.5 4.506 7.5C3.40125 7.5 2.39475 7.4357 1.73925 7.33999C1.72875 7.32903 0.99525 7.21213 0.744 7.08427C0.285 6.84973 0 6.39162 0 5.90136V5.85899C0.01125 5.5397 0.29625 4.86824 0.30675 4.86824C0.78825 3.73941 2.286 1.51242 3.28125 0.617389C3.28125 0.617389 3.537 0.365319 3.69675 0.255723C3.92625 0.084754 4.2105 0 4.49475 0C4.812 0 5.1075 0.0957136 5.34825 0.276912" fill="#189B69"/>
</svg>
