<svg width="24" height="24" viewBox="0 0 24 24" fill="none" xmlns="http://www.w3.org/2000/svg">
<g clip-path="url(#clip0_141_1189)">
<path d="M20.564 11.7621C20.1004 12.8812 20.0713 14.2646 20.5348 15.3836L20.9337 16.165H3.71642C3.71642 16.165 0.510907 14.3639 3.71642 11.1584L20.785 10.8066L20.564 11.7621Z" fill="#F1F2F2"/>
<path d="M20.9338 16.1652H3.71662C3.71662 16.1652 0.511205 14.364 3.71662 11.1585L20.7853 10.8066L20.564 11.7623C20.4606 12.0137 20.3792 12.2735 20.3208 12.5389H4.69756C4.0923 12.5389 3.60013 13.0311 3.60013 13.6359C3.60013 14.2412 4.0923 14.7333 4.69756 14.7333H20.3266C20.3791 14.9571 20.4485 15.175 20.5349 15.3837L20.9338 16.1652Z" fill="#DEE1E1"/>
<path d="M20.6731 16.8959L4.93527 16.8711C3.04983 16.8711 1.43062 15.6683 1.43062 13.7829C1.43062 13.3664 1.3581 12.8204 1.49464 12.4514C1.97618 11.1498 3.22845 10.2219 4.69748 10.2219H20.8429C21.2682 10.2219 21.613 10.5667 21.613 10.992C21.613 11.4173 21.2682 11.762 20.8429 11.762H8.62363L7.43029 12.0421L6.39246 11.762H4.69743C3.66256 11.762 2.82364 12.6009 2.82364 13.6358C2.82364 14.6707 3.66256 15.5096 4.69743 15.5096H20.8429C21.2682 15.5096 21.6129 15.8544 21.6129 16.2796C21.6129 16.3103 21.6112 16.3406 21.6077 16.3703C21.5628 16.7529 21.0677 16.8959 20.6731 16.8959Z" fill="#B7E546"/>
<path d="M21.6076 16.3704C21.5872 16.542 21.5098 16.7018 21.3877 16.8242C21.2479 16.9635 21.0557 17.0499 20.8431 17.0499L12.8666 17.5279L4.69758 17.0499C2.81189 17.0499 1.28345 15.5215 1.28345 13.6358C1.28345 13.1441 1.38732 12.6767 1.57467 12.2544V12.9562C1.57467 14.8419 3.10312 16.3704 4.9888 16.3704H21.6076Z" fill="#ABD641"/>
<path d="M8.62354 14.0071V11.7622H7.02345L6.45532 11.8192L6.48944 13.91C6.48945 13.9258 6.49331 13.9414 6.50069 13.9554C6.50807 13.9693 6.51875 13.9813 6.53181 13.9902C6.54486 13.9991 6.55989 14.0047 6.57559 14.0065C6.59129 14.0083 6.60719 14.0062 6.6219 14.0004L7.02341 13.9023L7.47257 13.7264C7.49534 13.7175 7.52062 13.7175 7.54334 13.7264L8.49108 14.0975C8.5058 14.1033 8.5217 14.1054 8.53741 14.1036C8.55311 14.1018 8.56814 14.0962 8.5812 14.0873C8.59425 14.0784 8.60493 14.0664 8.61231 14.0525C8.61969 14.0385 8.62355 14.0229 8.62354 14.0071Z" fill="#EF5227"/>
<path d="M7.02357 11.7622V13.9022L6.52509 14.0973C6.4615 14.1221 6.39258 14.0755 6.39258 14.0071V11.7622H7.02357Z" fill="#D83724"/>
<path d="M18.351 8.26167V9.3562L18.3024 9.84157C18.3024 10.0294 18.15 10.1813 17.9627 10.1813L5.02693 10.1328C4.83909 10.1328 4.68716 9.98087 4.68716 9.79303L4.59009 8.26167L11.2306 7.94434L18.351 8.26167Z" fill="#FDCD08"/>
<path d="M22.3364 8.33866C22.2399 8.33866 22.1473 8.3003 22.079 8.23203C22.0108 8.16376 21.9724 8.07117 21.9724 7.97462V4.1985C21.9724 3.99746 22.1354 3.83447 22.3364 3.83447C22.5375 3.83447 22.7005 3.99746 22.7005 4.1985V7.97458C22.7005 8.02239 22.6911 8.06973 22.6728 8.1139C22.6545 8.15807 22.6277 8.19821 22.5939 8.23202C22.5601 8.26582 22.5199 8.29264 22.4758 8.31094C22.4316 8.32924 22.3843 8.33866 22.3364 8.33866Z" fill="#77777F"/>
<path d="M21.6859 9.17534C21.382 9.92432 21.0763 10.6633 20.7724 11.4123C20.5908 11.86 20.917 12.3507 21.3964 12.3507L21.9583 12.3992H23.3251C23.8045 12.3992 24.1308 11.9086 23.9491 11.4608L23.3155 9.89879L22.9169 9.17529L21.6859 9.17534Z" fill="#FDCD08"/>
<path d="M22.1751 10.1749C22.5745 10.2113 22.9934 10.1065 23.3154 9.89891L22.9747 9.04736L22.4116 9.21569L22.4117 9.21555L21.6776 9.1176C21.5849 9.34621 21.4501 9.67083 21.3574 9.89944L21.3575 9.89949L20.724 11.4609C20.5425 11.9089 20.8687 12.3991 21.3477 12.3991H22.1243C21.6453 12.3991 21.3191 11.9089 21.5006 11.4609C21.6584 11.0722 21.8161 10.6836 21.9738 10.2949C22.0064 10.2142 22.0885 10.167 22.1751 10.1749Z" fill="#FAAB18"/>
<path d="M23.457 8.32275C23.457 7.82674 23.1406 7.40529 22.7005 7.25279C22.5863 7.21323 22.4205 7.28361 22.2931 7.28361C21.6743 7.28361 21.2935 7.69817 21.2935 8.3228C21.2935 8.94743 21.7564 9.32218 22.3752 9.32218C22.5026 9.32218 22.5863 9.43227 22.7005 9.39276C23.1406 9.24021 23.457 8.81875 23.457 8.32275Z" fill="#FDCD08"/>
<path d="M22.7003 9.39258C22.5863 9.43238 22.4635 9.45374 22.3363 9.45374C21.7175 9.45374 21.2161 8.94701 21.2161 8.32233C21.2161 7.69814 21.7175 7.19141 22.3363 7.19141C22.4635 7.19141 22.5863 7.21276 22.7003 7.25256C22.2601 7.40497 21.9441 7.82676 21.9441 8.32233C21.9441 8.81838 22.2601 9.24017 22.7003 9.39258Z" fill="#FAAB18"/>
<path d="M22.4262 4.58764L19.2247 5.69595L18.3511 5.60635L12.1369 8.14962C11.7053 8.29906 11.2359 8.29906 10.8043 8.14962L4.59019 5.70551L3.71652 5.696L0.514838 4.58764C0.149351 4.46111 0.149351 3.94423 0.514838 3.81774L10.9256 0.213734C11.2786 0.0915158 11.6624 0.0915158 12.0154 0.213734L22.4262 3.81774C22.7917 3.94423 22.7917 4.46111 22.4262 4.58764Z" fill="#868491"/>
<path d="M19.2245 5.36747V5.69607L12.1366 8.14964C11.7049 8.29913 11.2355 8.29913 10.8038 8.14964L3.71631 5.69607V5.36747C3.71631 4.67484 4.21091 4.08365 4.89286 3.96085C7.05957 3.57255 9.2724 3.37598 11.4702 3.37598C13.668 3.37598 15.8813 3.57255 18.048 3.96085C18.378 4.02055 18.6775 4.19432 18.892 4.45108C19.1056 4.7059 19.2245 5.03208 19.2245 5.36747Z" fill="#77777F"/>
<path d="M18.351 5.36733V8.26162H4.73579L4.68726 5.46441C4.68726 5.19551 4.87995 4.96544 5.14448 4.91787C5.28315 4.89302 5.32489 4.77192 5.46381 4.74867C7.44876 4.4166 9.45783 4.24964 11.4704 4.24951C13.6201 4.24951 15.7698 4.44026 17.8938 4.8208C18.0258 4.84458 18.1404 4.91399 18.2215 5.01107C18.303 5.10814 18.351 5.23288 18.351 5.36733Z" fill="#868491"/>
<path d="M18.351 9.3562V9.89011C18.351 10.0779 18.1985 10.2299 18.0112 10.2299H4.92985C4.83974 10.2299 4.75332 10.1941 4.6896 10.1304C4.62588 10.0666 4.59009 9.98022 4.59009 9.89011V8.26167L5.02693 7.94434L5.46376 8.26167V9.11351C5.46376 9.17787 5.48933 9.2396 5.53484 9.28511C5.58036 9.33063 5.64209 9.3562 5.70645 9.3562H18.351Z" fill="#FAAB18"/>
<path d="M5.46376 4.74902V8.26168H4.59009V5.36739C4.59009 5.09849 4.78278 4.86843 5.04731 4.82086C5.18613 4.7961 5.32495 4.77184 5.46376 4.74902Z" fill="#77777F"/>
<path d="M21.8465 22.2001C21.617 21.646 21.4989 21.0521 21.4989 20.4524C21.4989 19.8527 21.617 19.2588 21.8465 18.7047L21.9942 18.0486H2.14665C2.14665 18.0486 -0.0875831 20.4775 2.29182 22.8569L22.1235 23.0056L21.8465 22.2001Z" fill="#F1F2F2"/>
<path d="M22.1234 23.0055L2.29198 22.857C-0.0878125 20.4776 2.14685 18.0488 2.14685 18.0488L22.0897 18.0857L21.8468 18.7046C21.7576 18.9194 21.6851 19.1407 21.6298 19.3666H3.41417C2.80891 19.3666 2.31674 19.8588 2.31674 20.4636C2.31674 21.0688 2.80891 21.561 3.41417 21.561H21.6356C21.6903 21.7789 21.7609 21.9926 21.8468 22.2002L22.1234 23.0055Z" fill="#DEE1E1"/>
<path d="M21.7892 23.7076L3.84477 23.6746C1.95933 23.6746 0.300517 22.6106 0.300517 20.7252C0.300517 20.1268 0.154176 19.3029 0.424627 18.8139C1.00635 17.762 2.12708 17.0498 3.4141 17.0498H22.1264C22.5517 17.0498 22.8965 17.3946 22.8965 17.8199C22.8965 18.2451 22.5517 18.5899 22.1264 18.5899H17.4901L16.2787 18.8581L15.259 18.5899H3.41415C2.37928 18.5899 1.54036 19.4288 1.54036 20.4637C1.54036 21.4986 2.37928 22.3375 3.41415 22.3375H22.1264C22.5517 22.3375 22.8965 22.6822 22.8965 23.1075C22.8965 23.155 22.8922 23.2015 22.8839 23.2466C22.8185 23.6055 22.167 23.7076 21.7892 23.7076Z" fill="#EF5227"/>
<path d="M22.884 23.2468C22.8553 23.404 22.7791 23.5438 22.6709 23.6521C22.5995 23.7237 22.5146 23.7805 22.4211 23.8192C22.3277 23.858 22.2275 23.8779 22.1263 23.8778H3.41413C1.52845 23.8778 0 22.3493 0 20.4636C0 19.789 0.195606 19.1599 0.533913 18.6299V19.8326C0.533913 21.7183 2.06236 23.2468 3.94804 23.2468H22.884Z" fill="#D83724"/>
<path d="M17.4899 20.8524V18.5894H15.9868L15.3201 18.6299L15.3558 20.7553C15.3558 20.7711 15.3597 20.7867 15.367 20.8007C15.3744 20.8146 15.3851 20.8266 15.3982 20.8355C15.4112 20.8444 15.4262 20.85 15.4419 20.8518C15.4576 20.8536 15.4735 20.8515 15.4883 20.8457L15.9867 20.7096L16.3389 20.5717C16.3617 20.5628 16.387 20.5628 16.4097 20.5717L17.3574 20.9428C17.3721 20.9486 17.3881 20.9507 17.4038 20.9489C17.4195 20.9471 17.4345 20.9415 17.4475 20.9326C17.4606 20.9237 17.4713 20.9117 17.4787 20.8978C17.486 20.8838 17.4899 20.8682 17.4899 20.8524Z" fill="#FDCD08"/>
<path d="M15.9869 18.5891V20.7097L15.3913 20.9427C15.3277 20.9675 15.2588 20.9209 15.2588 20.8524V18.5891H15.9869Z" fill="#FAAB18"/>
</g>
<defs>
<clipPath id="clip0_141_1189">
<rect width="24" height="24" fill="white"/>
</clipPath>
</defs>
</svg>
