<svg width="32" height="32" viewBox="0 0 32 32" fill="none" xmlns="http://www.w3.org/2000/svg">
<path d="M16 0C7.17725 0 0 7.17725 0 16C0 24.8228 7.17725 32 16 32C24.8228 32 32 24.8228 32 16C32 7.17725 24.8228 0 16 0Z" fill="#F44336"/>
<path d="M21.8922 20.0067C22.4134 20.5282 22.4134 21.3707 21.8922 21.8922C21.7685 22.0162 21.6215 22.1145 21.4597 22.1815C21.2979 22.2486 21.1244 22.283 20.9493 22.2828C20.608 22.2828 20.2667 22.1522 20.0067 21.8922L16.0001 17.8854L11.9935 21.8922C11.8699 22.0162 11.7229 22.1145 11.5612 22.1816C11.3994 22.2486 11.226 22.283 11.0509 22.2829C10.8757 22.283 10.7023 22.2486 10.5405 22.1816C10.3787 22.1146 10.2317 22.0162 10.108 21.8922C9.58679 21.3707 9.58679 20.5282 10.108 20.0067L14.1149 16.0001L10.108 11.9935C9.58673 11.472 9.58673 10.6295 10.108 10.108C10.6295 9.58679 11.472 9.58679 11.9935 10.108L16.0001 14.1149L20.0067 10.108C20.5282 9.58673 21.3707 9.58673 21.8922 10.108C22.4134 10.6295 22.4134 11.472 21.8922 11.9935L17.8854 16.0001L21.8922 20.0067Z" fill="#FAFAFA"/>
</svg>
