<svg width="20" height="20" viewBox="0 0 20 20" fill="none" xmlns="http://www.w3.org/2000/svg">
<mask id="mask0_150_3307" style="mask-type:luminance" maskUnits="userSpaceOnUse" x="0" y="0" width="20" height="20">
<path fill-rule="evenodd" clip-rule="evenodd" d="M0 0H19.4996V19.5007H0V0Z" fill="white"/>
</mask>
<g mask="url(#mask0_150_3307)">
<path fill-rule="evenodd" clip-rule="evenodd" d="M6.773 9.59876C6.791 9.61476 6.808 9.62976 6.825 9.64776C7.904 10.7538 8.499 12.2188 8.499 13.7738V17.7578L10.735 16.5398C10.911 16.4438 11.02 16.2558 11.02 16.0488V13.7618C11.02 12.2128 11.609 10.7528 12.678 9.65276L17.515 4.50776C17.828 4.17476 18 3.73776 18 3.27676V2.34076C18 1.87676 17.634 1.49976 17.186 1.49976H2.315C1.866 1.49976 1.5 1.87676 1.5 2.34076V3.27676C1.5 3.73776 1.672 4.17476 1.985 4.50676L6.773 9.59876ZM8.146 19.5008C7.944 19.5008 7.744 19.4468 7.562 19.3388C7.21 19.1288 6.999 18.7578 6.999 18.3458V13.7738C6.999 12.6388 6.576 11.5698 5.805 10.7508C5.782 10.7318 5.759 10.7108 5.739 10.6888L0.893 5.53576C0.317 4.92376 0 4.12076 0 3.27676V2.34076C0 1.04976 1.039 -0.000244141 2.315 -0.000244141H17.186C18.461 -0.000244141 19.5 1.04976 19.5 2.34076V3.27676C19.5 4.11976 19.183 4.92176 18.609 5.53476L13.762 10.6888C12.959 11.5168 12.52 12.6058 12.52 13.7618V16.0488C12.52 16.8048 12.111 17.4968 11.453 17.8568L8.692 19.3608C8.52 19.4538 8.333 19.5008 8.146 19.5008Z" fill="#131516"/>
</g>
</svg>
