<?xml version="1.0" encoding="UTF-8"?>
<svg version="1.1" xmlns="http://www.w3.org/2000/svg" width="1001" height="1000">
<path d="M0 0 C151.8 0 303.6 0 460 0 C460 151.8 460 303.6 460 460 C308.2 460 156.4 460 0 460 C0 308.2 0 156.4 0 0 Z " fill="#FEFEFE" transform="translate(270,270)"/>
<path d="M0 0 C26.73 0 53.46 0 81 0 C81 41.58 81 83.16 81 126 C122.58 126 164.16 126 207 126 C207 152.73 207 179.46 207 207 C138.69 207 70.38 207 0 207 C0 138.69 0 70.38 0 0 Z " fill="#ED252D" transform="translate(270,523)"/>
<path d="M0 0 C68.31 0 136.62 0 207 0 C207 26.73 207 53.46 207 81 C165.42 81 123.84 81 81 81 C81 122.58 81 164.16 81 207 C54.27 207 27.54 207 0 207 C0 138.69 0 70.38 0 0 Z " fill="#ED242D" transform="translate(270,270)"/>
<path d="M0 0 C26.4 0 52.8 0 80 0 C80 68.31 80 136.62 80 207 C11.69 207 -56.62 207 -127 207 C-127 180.27 -127 153.54 -127 126 C-85.09 126 -43.18 126 0 126 C0 84.42 0 42.84 0 0 Z " fill="#ED242D" transform="translate(650,523)"/>
<path d="M0 0 C68.31 0 136.62 0 207 0 C207 68.31 207 136.62 207 207 C180.6 207 154.2 207 127 207 C127 165.42 127 123.84 127 81 C85.09 81 43.18 81 0 81 C0 54.27 0 27.54 0 0 Z " fill="#ED242D" transform="translate(523,270)"/>
<path d="M0 0 C45.54 0 91.08 0 138 0 C138 45.54 138 91.08 138 138 C92.46 138 46.92 138 0 138 C0 92.46 0 46.92 0 0 Z " fill="#084E8F" transform="translate(431,431)"/>
</svg>
