<svg width="20" height="18" viewBox="0 0 20 18" fill="none" xmlns="http://www.w3.org/2000/svg">
<path fill-rule="evenodd" clip-rule="evenodd" d="M7.76069 11.6168C7.56869 11.6168 7.37669 11.5438 7.23069 11.3968C6.49269 10.6598 6.08569 9.67983 6.08569 8.63783C6.08569 6.47783 7.84169 4.72083 9.99969 4.72083C11.0377 4.72083 12.0457 5.13983 12.7647 5.87083C13.0547 6.16683 13.0517 6.64083 12.7557 6.93083C12.4607 7.22283 11.9867 7.21783 11.6957 6.92383C11.2567 6.47683 10.6387 6.22083 9.99969 6.22083C8.66869 6.22083 7.58569 7.30483 7.58569 8.63783C7.58569 9.27883 7.83669 9.88283 8.29069 10.3368C8.58369 10.6298 8.58369 11.1038 8.29169 11.3968C8.14469 11.5438 7.95269 11.6168 7.76069 11.6168Z" fill="#131516"/>
<path fill-rule="evenodd" clip-rule="evenodd" d="M10.5673 12.4908C10.2123 12.4908 9.89632 12.2368 9.83032 11.8748C9.75632 11.4678 10.0263 11.0768 10.4343 11.0028C11.4143 10.8248 12.1903 10.0468 12.3663 9.06581C12.4403 8.65881 12.8303 8.39081 13.2373 8.46081C13.6453 8.53381 13.9163 8.92381 13.8433 9.33181C13.5563 10.9248 12.2943 12.1888 10.7023 12.4788C10.6573 12.4868 10.6113 12.4908 10.5673 12.4908Z" fill="#131516"/>
<mask id="mask0_73_922" style="mask-type:luminance" maskUnits="userSpaceOnUse" x="0" y="0" width="17" height="15">
<path fill-rule="evenodd" clip-rule="evenodd" d="M0 0.624023H16.0862V14.7222H0V0.624023Z" fill="white"/>
</mask>
<g mask="url(#mask0_73_922)">
<path fill-rule="evenodd" clip-rule="evenodd" d="M4.6545 14.7222C4.4925 14.7222 4.3295 14.6692 4.1915 14.5622C2.5005 13.2342 1.0715 11.2872 0.0615 8.93315C-0.0205 8.74315 -0.0205 8.52915 0.0615 8.34015C1.0825 5.97615 2.5205 4.01915 4.2205 2.68215C7.6865 -0.0608494 12.3005 -0.0698495 15.8015 2.70215C16.1265 2.95915 16.1815 3.43115 15.9245 3.75615C15.6665 4.07915 15.1965 4.13615 14.8705 3.87815C11.9045 1.53015 8.0835 1.53815 5.1495 3.86015C3.7135 4.99015 2.4805 6.63615 1.5705 8.63815C2.4715 10.6281 3.6935 12.2642 5.1185 13.3822C5.4445 13.6382 5.5005 14.1102 5.2445 14.4352C5.0965 14.6231 4.8765 14.7222 4.6545 14.7222Z" fill="#131516"/>
</g>
<mask id="mask1_73_922" style="mask-type:luminance" maskUnits="userSpaceOnUse" x="6" y="4" width="14" height="13">
<path fill-rule="evenodd" clip-rule="evenodd" d="M6.71753 4.74084H20.0001V16.689H6.71753V4.74084Z" fill="white"/>
</mask>
<g mask="url(#mask1_73_922)">
<path fill-rule="evenodd" clip-rule="evenodd" d="M10.0002 16.689C9.06316 16.689 8.13116 16.537 7.23116 16.238C6.83816 16.107 6.62516 15.682 6.75616 15.289C6.88716 14.895 7.31016 14.686 7.70516 14.814C8.45216 15.063 9.22416 15.189 10.0002 15.189C13.4282 15.189 16.5612 12.747 18.4302 8.63605C17.9742 7.63705 17.4432 6.73205 16.8492 5.94205C16.6002 5.61105 16.6662 5.14005 16.9972 4.89105C17.3272 4.64205 17.7982 4.71005 18.0472 5.04005C18.7712 6.00105 19.4072 7.11205 19.9382 8.33805C20.0212 8.52805 20.0212 8.74405 19.9382 8.93305C17.8422 13.79 14.1272 16.689 10.0002 16.689Z" fill="#131516"/>
</g>
<mask id="mask2_73_922" style="mask-type:luminance" maskUnits="userSpaceOnUse" x="1" y="0" width="18" height="18">
<path fill-rule="evenodd" clip-rule="evenodd" d="M1.36353 0H18.637V17.273H1.36353V0Z" fill="white"/>
</mask>
<g mask="url(#mask2_73_922)">
<path fill-rule="evenodd" clip-rule="evenodd" d="M2.11328 17.273C1.92128 17.273 1.72928 17.2 1.58328 17.053C1.29028 16.76 1.29028 16.286 1.58328 15.993L17.3573 0.219018C17.6503 -0.0739824 18.1243 -0.0739824 18.4173 0.219018C18.7103 0.512018 18.7103 0.987018 18.4173 1.28002L2.64328 17.053C2.49728 17.2 2.30528 17.273 2.11328 17.273Z" fill="#131516"/>
</g>
</svg>
