<svg width="16" height="17" viewBox="0 0 16 17" fill="none" xmlns="http://www.w3.org/2000/svg">
<path d="M5.53644 15.6518V13.096C5.53643 12.4484 6.06306 11.9223 6.71536 11.9182H9.11051C9.76573 11.9182 10.2969 12.4455 10.2969 13.096V15.6444C10.2969 16.2061 10.7534 16.6626 11.3191 16.6666H12.9532C13.7164 16.6686 14.449 16.369 14.9893 15.8339C15.5297 15.2988 15.8333 14.5723 15.8333 13.8146V6.55487C15.8333 5.94282 15.5601 5.36226 15.0872 4.96958L9.53581 0.56189C8.56543 -0.209065 7.17948 -0.18416 6.23783 0.621153L0.805844 4.96958C0.310617 5.35068 0.0146269 5.93297 0 6.55487V13.8072C0 15.3864 1.28948 16.6666 2.88014 16.6666H4.47691C4.74931 16.6686 5.01124 16.5626 5.20456 16.372C5.39788 16.1815 5.5066 15.9222 5.5066 15.6518H5.53644Z" fill="#6F56AE"/>
</svg>
