<svg width="24" height="24" viewBox="0 0 24 24" fill="none" xmlns="http://www.w3.org/2000/svg">
<g clip-path="url(#clip0_141_1191)">
<path d="M11.3346 15.5629C8.44425 15.5629 6.09277 13.2068 6.09277 10.3108V5.26259C6.09277 2.36657 8.44425 0.010498 11.3346 0.010498C14.225 0.010498 16.5765 2.36657 16.5765 5.26259V10.3108C16.5765 13.2068 14.225 15.5629 11.3346 15.5629Z" fill="#DADA3B"/>
<path d="M11.3347 0.010498V15.5629C14.2251 15.5629 16.5766 13.2068 16.5766 10.3108V5.26259C16.5765 2.36657 14.2251 0.010498 11.3347 0.010498Z" fill="#9DBC29"/>
<path d="M11.2993 5.05884C10.9118 5.05884 10.5976 5.37365 10.5976 5.76196V7.90498L10.1299 7.43173C9.85722 7.15578 9.41294 7.15358 9.13745 7.42681C8.86206 7.70005 8.85981 8.14522 9.13253 8.42117L10.5975 9.90373V23.2878C10.5975 23.6761 10.9117 23.9909 11.2993 23.9909C11.6868 23.9909 12.001 23.6761 12.001 23.2878V5.76196C12.0011 5.37365 11.6869 5.05884 11.2993 5.05884Z" fill="#A34F3E"/>
<path d="M11.3347 5.06152V23.99C11.7057 23.9714 12.0011 23.665 12.0011 23.2886V5.76282C12.0011 5.38646 11.7057 5.08009 11.3347 5.06152Z" fill="#873F2E"/>
<path d="M3.95543 23.9512C3.56787 23.9512 3.25366 23.6364 3.25366 23.2481V18.9197C3.25366 18.5314 3.56787 18.2166 3.95543 18.2166C4.34299 18.2166 4.65719 18.5314 4.65719 18.9197V23.2481C4.65719 23.6364 4.34299 23.9512 3.95543 23.9512Z" fill="#C86E59"/>
<path d="M3.95532 18.2166V23.9512C4.34288 23.9512 4.65709 23.6364 4.65709 23.2481V18.9197C4.65709 18.5313 4.34288 18.2166 3.95532 18.2166Z" fill="#A34F3E"/>
<path d="M3.95537 19.6228C2.81973 19.6228 1.79149 18.8223 1.06001 17.3688C0.405586 16.0683 0.045166 14.3548 0.045166 12.544C0.045166 8.83392 3.25436 4.43908 3.391 4.25383C3.52332 4.0744 3.73276 3.96851 3.95542 3.96851C4.17807 3.96851 4.38751 4.0744 4.51984 4.25383C4.65643 4.43913 7.86562 8.83392 7.86562 12.544C7.86562 14.3548 7.5052 16.0683 6.85073 17.3688C6.1193 18.8223 5.09101 19.6228 3.95537 19.6228Z" fill="#DADA3B"/>
<path d="M4.51974 4.25383C4.45458 4.16539 4.36956 4.0935 4.27152 4.04394C4.17348 3.99438 4.06517 3.96854 3.95532 3.96851V19.6228C5.09096 19.6228 6.1192 18.8223 6.85069 17.3688C7.50515 16.0683 7.86557 14.3548 7.86557 12.544C7.86553 8.83392 4.65633 4.43908 4.51974 4.25383Z" fill="#9DBC29"/>
<path d="M21.3237 6.16165C19.1539 6.46155 17.334 4.4869 17.9015 2.27922C18.1747 1.21671 19.011 0.378771 20.0714 0.105115C22.2748 -0.463573 24.2456 1.35991 23.9463 3.53397C23.7586 4.8971 22.6842 5.97358 21.3237 6.16165Z" fill="#FFDD54"/>
<path d="M20.8865 0V6.19148C21.0302 6.19148 21.1761 6.18197 21.3236 6.16158C22.6841 5.97356 23.7585 4.89703 23.9462 3.53391C24.2079 1.63289 22.734 0 20.8865 0Z" fill="#FFB454"/>
<path d="M20.9581 14.4115C20.5706 14.4115 20.2563 14.0967 20.2563 13.7084V9.77588C20.2563 9.38757 20.5706 9.07275 20.9581 9.07275C21.3457 9.07275 21.6599 9.38757 21.6599 9.77588V13.7084C21.6599 14.0967 21.3457 14.4115 20.9581 14.4115Z" fill="#FF405C"/>
<path d="M6.92212 23.9999V14.7465C6.92212 14.6795 6.95081 14.6157 7.00082 14.5712L14.4704 7.9321C14.5131 7.89406 14.5684 7.87305 14.6256 7.87305C14.6828 7.87305 14.7381 7.89406 14.7808 7.9321L22.2503 14.5712C22.2751 14.5932 22.2949 14.6202 22.3084 14.6505C22.322 14.6807 22.329 14.7134 22.329 14.7465V23.9998H6.92212V23.9999Z" fill="#FFF2DE"/>
<path d="M22.2502 14.5712L14.7807 7.93211C14.738 7.89406 14.6827 7.87305 14.6255 7.87305V23.9998H22.3289V14.7465C22.3289 14.7134 22.3219 14.6807 22.3084 14.6505C22.2948 14.6202 22.275 14.5932 22.2502 14.5712Z" fill="#FDE4C3"/>
<path d="M13.0038 23.9999H8.79321V16.6584C8.79321 16.2701 9.10742 15.9553 9.49498 15.9553H12.302C12.6896 15.9553 13.0038 16.2701 13.0038 16.6584V23.9999Z" fill="#A34F3E"/>
<path d="M19.0397 20.0563H16.6411C16.367 20.0563 16.1448 19.8337 16.1448 19.559V17.1557C16.1448 16.8811 16.367 16.6584 16.6411 16.6584H19.0397C19.3139 16.6584 19.5361 16.8811 19.5361 17.1557V19.559C19.5361 19.8337 19.3139 20.0563 19.0397 20.0563Z" fill="#C8FFFF"/>
<path d="M19.5361 20.7594H16.1449C15.7573 20.7594 15.4431 20.4446 15.4431 20.0563V16.6584C15.4431 16.2701 15.7573 15.9553 16.1449 15.9553H19.5361C19.9237 15.9553 20.2379 16.2701 20.2379 16.6584V20.0563C20.2379 20.4446 19.9237 20.7594 19.5361 20.7594ZM16.8466 19.3532H18.8343V17.3616H16.8466V19.3532Z" fill="#A34F3E"/>
<path d="M23.2512 16.4777C23.0795 16.4779 22.9138 16.4148 22.7858 16.3005L14.6255 9.04756L6.46531 16.3005C6.17543 16.5582 5.73185 16.5317 5.47465 16.2412C5.21745 15.9507 5.24398 15.5063 5.53395 15.2486L14.1599 7.58165C14.2881 7.46756 14.4539 7.40454 14.6255 7.40454C14.7972 7.40454 14.9629 7.46756 15.0912 7.58165L23.7171 15.2486C24.007 15.5063 24.0336 15.9507 23.7764 16.2412C23.7107 16.3156 23.6298 16.3752 23.5393 16.416C23.4487 16.4568 23.3505 16.4778 23.2512 16.4777Z" fill="#FF405C"/>
<path d="M23.7171 15.2484L15.0912 7.58144C14.963 7.46722 14.7972 7.40417 14.6255 7.4043V9.04731L22.7857 16.3003C22.9138 16.4146 23.0795 16.4776 23.2511 16.4775C23.4449 16.4775 23.6377 16.3975 23.7764 16.2409C24.0336 15.9505 24.0071 15.5061 23.7171 15.2484Z" fill="#E20059"/>
<path d="M23.2981 24H0.701763C0.314202 23.991 0 23.6762 0 23.2878C0 22.8995 0.314202 22.5847 0.701763 22.5847H23.2981C23.6857 22.5847 23.9999 22.8995 23.9999 23.2878C23.9999 23.6762 23.6857 23.991 23.2981 24Z" fill="#DADA3B"/>
<path d="M23.2981 22.5847H12.001V24H23.2981C23.6857 23.991 23.9999 23.6762 23.9999 23.2878C23.9999 22.8995 23.6857 22.5847 23.2981 22.5847Z" fill="#9DBC29"/>
</g>
<defs>
<clipPath id="clip0_141_1191">
<rect width="24" height="24" fill="white"/>
</clipPath>
</defs>
</svg>
