<svg width="40" height="16" viewBox="0 0 40 16" fill="none" xmlns="http://www.w3.org/2000/svg">
<path fill-rule="evenodd" clip-rule="evenodd" d="M0.000313111 1.57628L0 1.55736V0.0430508H1.51111V11.1499L1.51174 11.1845V12.6831H0V11.1688L0.000313111 11.1499V1.57628Z" fill="#3781C2"/>
<path fill-rule="evenodd" clip-rule="evenodd" d="M15.3657 8.07945C15.4045 10.3767 16.8258 12.2139 18.5405 12.1831C20.2549 12.1524 21.6131 10.2652 21.5743 7.96787C21.5352 5.67027 20.1138 3.83308 18.3991 3.86418C16.6847 3.89496 15.3266 5.78217 15.3657 8.07945ZM27.8775 5.30187C27.9169 5.3894 27.8233 5.17106 27.8233 5.17106L27.8775 5.30187ZM28.9073 14.8126C28.9766 14.694 29.0731 14.5125 29.1879 14.2858L28.9073 14.8126ZM28.9961 4.50929C29.0144 4.56027 29.0356 4.61349 29.0593 4.6696L29.5681 5.92292L28.9961 4.50929ZM22.6644 10.8186C23.5984 11.6714 24.4394 12.1123 25.5148 12.1123C26.6155 12.1206 27.594 11.5791 27.594 10.5367C27.594 9.66687 26.8274 9.15804 25.4577 8.57546C24.297 8.07015 23.4333 7.71586 22.9818 6.98451C23.037 7.30225 23.0658 7.63058 23.0658 7.96659C23.0658 10.7878 21.0318 13.0751 18.5225 13.0751C16.0133 13.0751 13.9793 10.7878 13.9793 7.96659C13.9793 6.26567 14.7187 4.75905 15.8553 3.83052H12.7808V11.1494L12.7811 11.1786V12.6827H11.4156V11.2277C11.4165 11.202 11.4168 11.1761 11.4168 11.1494V3.83052H10.2129V2.90936H11.4345C11.5922 1.05101 12.7365 0 14.3208 0C15.348 0 15.912 0.107733 16.2378 0.259389V1.51913C16.2326 1.61307 16.2326 1.67046 16.2326 1.67046C16.2185 1.66886 16.1849 1.66822 16.1849 1.66822C15.6905 1.2094 15.2028 0.867934 14.0636 0.869217C13.1562 0.869217 12.556 1.61083 12.7657 2.90936H17.8765C18.0878 2.8757 18.3032 2.85806 18.5225 2.85806C20.3427 2.85806 21.9132 4.06169 22.6381 5.80012C22.6314 5.70361 22.6282 5.60294 22.6282 5.49777C22.6282 3.68399 24.3733 2.91257 26.1862 2.91642C26.2554 2.9161 26.3234 2.91641 26.3901 2.91802C27.0281 2.90776 27.9371 3.11713 28.4921 3.26397L29.5681 5.92292L31.1058 9.69605L31.2864 10.302L31.4874 9.69605L33.432 4.85299C33.7908 3.51951 35.2108 2.94238 36.7793 2.94559C37.5591 2.94206 38.1349 3.03665 38.8256 3.28097V4.74559C37.9753 4.12389 37.3664 3.76255 36.4016 3.76255C35.5536 3.76255 34.5343 4.14025 34.5343 5.39582C34.5179 6.33942 35.0806 6.51191 36.7319 7.33624C38.0891 7.92908 39.3411 8.58348 39.3485 10.0991C39.3485 12.6259 36.8739 13.0636 35.6693 13.0674C34.5939 13.0674 33.6083 12.8003 33.06 12.3415V10.6733L33.1482 10.7467C34.1265 11.6657 34.9909 12.1418 36.1079 12.1418C37.209 12.1501 38.1872 11.6083 38.1872 10.5659C38.1872 9.69605 37.4206 9.18722 36.0508 8.60464C34.7417 8.03457 33.8828 7.65687 33.5317 6.71263C32.9978 8.02238 30.5146 14.1063 29.9301 15.4067H28.5912L29.1972 14.2685C29.5329 13.6035 30.0212 12.5602 30.455 11.5621L27.8775 5.30187C27.8601 5.26372 27.8178 5.16753 27.7316 4.97034C27.5338 4.51698 27.3497 4.09824 26.7931 3.88727C26.4949 3.78627 26.1775 3.73337 25.8085 3.73337C24.9604 3.73337 23.8757 4.11107 23.8757 5.36664C23.8594 6.31024 24.4872 6.48274 26.1387 7.30674C27.4959 7.8999 28.748 8.5543 28.7553 10.0699C28.7553 12.5967 26.2804 13.0341 25.0758 13.0383C24.1197 13.0383 23.2342 12.827 22.6644 12.4576V10.8186Z" fill="#3781C2"/>
<path fill-rule="evenodd" clip-rule="evenodd" d="M4.33109 3.00373L4.34777 4.10924L4.34681 4.18363L4.36154 4.1833C4.37918 4.13714 4.40292 4.09802 4.42536 4.06884C4.98036 3.47023 5.67997 2.87547 7.34273 2.87547C8.93432 2.87547 9.96448 4.23589 10.0058 5.09228L10.0074 11.1495V11.1797V12.6828H8.64352V10.8767L8.64318 5.72006C8.64318 4.65238 7.71177 3.88032 6.57162 3.88032C5.62385 3.88032 4.4074 4.73831 4.367 5.60688V11.1511L4.36765 11.1919V12.6841H3.00305V4.27661L3.00338 3.00373H4.33109Z" fill="#3781C2"/>
</svg>
