<svg width="32" height="32" viewBox="0 0 32 32" fill="none" xmlns="http://www.w3.org/2000/svg">
<g clip-path="url(#clip0_96_830)">
<path d="M15.9999 6.82963C15.3743 6.82963 14.8672 6.32256 14.8672 5.69694V1.13269C14.8672 0.507062 15.3743 0 15.9999 0C16.6254 0 17.1326 0.507062 17.1326 1.13269V5.697C17.1326 6.32256 16.6254 6.82963 15.9999 6.82963Z" fill="#9C611B"/>
<path d="M15.9999 31.9999C15.3743 31.9999 14.8672 31.4928 14.8672 30.8672V26.3029C14.8672 25.6772 15.3743 25.1702 15.9999 25.1702C16.6254 25.1702 17.1326 25.6772 17.1326 26.3029V30.8672C17.1326 31.4928 16.6254 31.9999 15.9999 31.9999Z" fill="#9C611B" fill-opacity="0.321569"/>
<path d="M21.6187 30.8977C21.1721 30.8977 20.7488 30.6318 20.5696 30.1929L18.8448 25.9671C18.6084 25.3879 18.8863 24.7267 19.4654 24.4904C20.0442 24.2537 20.7057 24.5318 20.9421 25.1109L22.6669 29.3367C22.9034 29.9159 22.6254 30.5771 22.0463 30.8134C21.9106 30.8691 21.7653 30.8977 21.6187 30.8977Z" fill="#9C611B" fill-opacity="0.345098"/>
<path d="M19.8931 7.59387C19.7505 7.59387 19.6056 7.56687 19.4654 7.50956C18.8862 7.27331 18.6084 6.61206 18.8448 6.03287L20.5696 1.80706C20.806 1.22787 21.4671 0.94918 22.0463 1.18649C22.6255 1.42274 22.9034 2.08399 22.6669 2.66318L20.9421 6.88899C20.7629 7.32799 20.3397 7.59387 19.8931 7.59387Z" fill="#9C611B" fill-opacity="0.580392"/>
<path d="M10.3811 30.8978C10.2385 30.8978 10.0936 30.8708 9.95347 30.8135C9.37428 30.5772 9.09641 29.916 9.33285 29.3368L11.0577 25.111C11.2941 24.5318 11.9552 24.2537 12.5343 24.4905C13.1135 24.7267 13.3914 25.388 13.155 25.9672L11.4302 30.193C11.251 30.6319 10.8277 30.8978 10.3811 30.8978Z" fill="#9C611B" fill-opacity="0.27451"/>
<path d="M2.23543 22.7515C1.7888 22.7515 1.36555 22.4858 1.18636 22.0467C0.949926 21.4675 1.2278 20.8063 1.80693 20.57L6.03268 18.8451C6.6118 18.608 7.27299 18.8863 7.50943 19.4656C7.74586 20.0448 7.46799 20.706 6.88886 20.9423L2.66311 22.6672C2.52739 22.7229 2.38212 22.7515 2.23543 22.7515Z" fill="#9C611B" fill-opacity="0.211765"/>
<path d="M25.5394 13.2392C25.0928 13.2392 24.6695 12.9735 24.4903 12.5344C24.2539 11.9552 24.5318 11.294 25.1109 11.0577L29.3366 9.33285C29.9156 9.09592 30.577 9.37398 30.8134 9.95342C31.0498 10.5326 30.7719 11.1938 30.1928 11.4301L25.9671 13.155C25.8313 13.2106 25.6861 13.2392 25.5394 13.2392Z" fill="#9C611B" fill-opacity="0.509804"/>
<path d="M6.46062 13.2395C6.31805 13.2395 6.17312 13.2125 6.03293 13.1552L1.80718 11.4304C1.22799 11.1941 0.950178 10.5329 1.18662 9.95366C1.42299 9.37448 2.08399 9.09666 2.66337 9.3331L6.88912 11.058C7.4683 11.2942 7.74612 11.9555 7.50968 12.5347C7.33049 12.9736 6.90718 13.2395 6.46062 13.2395Z" fill="#9C611B" fill-opacity="0.141176"/>
<path d="M29.7643 22.7513C29.6218 22.7513 29.4768 22.7243 29.3366 22.667L25.1109 20.9421C24.5317 20.7059 24.2539 20.0446 24.4903 19.4655C24.7268 18.8867 25.3878 18.6086 25.9671 18.845L30.1928 20.5698C30.772 20.8061 31.0498 21.4673 30.8134 22.0465C30.6342 22.4854 30.2109 22.7513 29.7643 22.7513Z" fill="#9C611B" fill-opacity="0.439216"/>
<path d="M23.2852 9.84726C22.9954 9.84726 22.7055 9.73663 22.4844 9.51545C22.042 9.0732 22.042 8.35601 22.4843 7.91376L25.7117 4.68632C26.154 4.24388 26.8712 4.24388 27.3135 4.68632C27.7558 5.12857 27.7559 5.84576 27.3135 6.28801L24.0862 9.51545C23.9811 9.6208 23.8563 9.70435 23.7188 9.76129C23.5814 9.81823 23.434 9.84745 23.2852 9.84726Z" fill="#9C611B" fill-opacity="0.533333"/>
<path d="M5.48713 27.6454C5.19726 27.6454 4.90745 27.5347 4.68626 27.3135C4.24395 26.8713 4.24388 26.1541 4.6862 25.7119L7.91357 22.4844C8.35588 22.042 9.07307 22.042 9.51538 22.4844C9.9577 22.9267 9.95776 23.6439 9.51544 24.0861L6.28807 27.3135C6.18301 27.4189 6.05816 27.5024 5.92071 27.5594C5.78326 27.6163 5.63591 27.6455 5.48713 27.6454Z" fill="#9C611B" fill-opacity="0.25098"/>
<path d="M8.71453 9.84736C8.42459 9.84736 8.13484 9.73674 7.91359 9.51555L4.68622 6.28811C4.24391 5.84586 4.24391 5.12867 4.68628 4.68642C5.12853 4.24417 5.84572 4.24417 6.28809 4.68642L9.51547 7.91386C9.95778 8.35611 9.95778 9.0733 9.51541 9.51555C9.41036 9.62089 9.28552 9.70444 9.14808 9.76138C9.01064 9.81832 8.8633 9.84754 8.71453 9.84736Z" fill="#9C611B" fill-opacity="0.0941176"/>
<path d="M26.5126 27.6452C26.2227 27.6452 25.9329 27.5346 25.7117 27.3134L22.4843 24.086C22.042 23.6437 22.042 22.9265 22.4844 22.4843C22.9267 22.042 23.6439 22.042 24.0862 22.4843L27.3135 25.7117C27.7559 26.154 27.7559 26.8712 27.3135 27.3134C27.2084 27.4188 27.0836 27.5023 26.9462 27.5593C26.8087 27.6162 26.6614 27.6454 26.5126 27.6452Z" fill="#9C611B" fill-opacity="0.392157"/>
<path d="M5.69681 17.1326H1.13269C0.507125 17.1326 0 16.6255 0 15.9999C0 15.3743 0.507125 14.8672 1.13269 14.8672H5.69681C6.32238 14.8672 6.8295 15.3743 6.8295 15.9999C6.8295 16.6255 6.32238 17.1326 5.69681 17.1326Z" fill="#9C611B" fill-opacity="0.188235"/>
<path d="M30.8671 17.1326H26.3029C25.6773 17.1326 25.1702 16.6255 25.1702 15.9999C25.1702 15.3743 25.6773 14.8672 26.3029 14.8672H30.8671C31.4927 14.8672 31.9998 15.3743 31.9998 15.9999C31.9998 16.6255 31.4927 17.1326 30.8671 17.1326Z" fill="#9C611B" fill-opacity="0.462745"/>
</g>
<defs>
<clipPath id="clip0_96_830">
<rect width="32" height="32" fill="white"/>
</clipPath>
</defs>
</svg>
