<svg width="24" height="24" viewBox="0 0 24 24" fill="none" xmlns="http://www.w3.org/2000/svg">
<path d="M24 22.9996C24 23.2648 23.8946 23.5191 23.7071 23.7067C23.5196 23.8942 23.2652 23.9996 23 23.9996H0.999994C0.734778 23.9996 0.480424 23.8942 0.292887 23.7067C0.105351 23.5191 -5.89364e-06 23.2648 -5.89364e-06 22.9996C-5.89364e-06 22.7344 0.105351 22.48 0.292887 22.2925C0.480424 22.1049 0.734778 21.9996 0.999994 21.9996H23C23.2652 21.9996 23.5196 22.1049 23.7071 22.2925C23.8946 22.48 24 22.7344 24 22.9996ZM0.290994 8.55157C0.0755164 8.15189 -0.0243112 7.70007 0.00271453 7.24682C0.0297403 6.79356 0.18255 6.35681 0.443994 5.98557C0.871252 5.35868 1.44344 4.84413 2.11199 4.48557L9.613 0.581567C10.3503 0.198198 11.169 -0.00195313 12 -0.00195312C12.831 -0.00195313 13.6497 0.198198 14.387 0.581567L21.887 4.48857C22.5556 4.84713 23.1277 5.36168 23.555 5.98857C23.8164 6.35981 23.9692 6.79656 23.9963 7.24982C24.0233 7.70307 23.9235 8.15489 23.708 8.55457C23.476 8.9934 23.1281 9.36017 22.7021 9.61496C22.2761 9.86974 21.7884 10.0028 21.292 9.99957H21V17.9996H22C22.2652 17.9996 22.5196 18.1049 22.7071 18.2925C22.8946 18.48 23 18.7344 23 18.9996C23 19.2648 22.8946 19.5191 22.7071 19.7067C22.5196 19.8942 22.2652 19.9996 22 19.9996H1.99999C1.73478 19.9996 1.48042 19.8942 1.29289 19.7067C1.10535 19.5191 0.999994 19.2648 0.999994 18.9996C0.999994 18.7344 1.10535 18.48 1.29289 18.2925C1.48042 18.1049 1.73478 17.9996 1.99999 17.9996H2.99999V9.99957H2.70799C2.21115 10.0027 1.723 9.86928 1.29678 9.61393C0.870566 9.35859 0.522653 8.99111 0.290994 8.55157ZM4.99999 17.9996H8V9.99957H4.99999V17.9996ZM10 9.99957V17.9996H14V9.99957H10ZM19 9.99957H16V17.9996H19V9.99957ZM2.06299 7.62457C2.12574 7.74025 2.21911 7.83643 2.33288 7.90257C2.44664 7.96872 2.57642 8.00227 2.70799 7.99957H21.292C21.4236 8.00227 21.5533 7.96872 21.6671 7.90257C21.7809 7.83643 21.8743 7.74025 21.937 7.62457C21.9827 7.54813 22.0048 7.4599 22.0005 7.37094C21.9963 7.28199 21.9658 7.19628 21.913 7.12457C21.6707 6.76448 21.3452 6.46811 20.964 6.26057L13.464 2.35357C13.012 2.11899 12.5102 1.99654 12.001 1.99654C11.4918 1.99654 10.99 2.11899 10.538 2.35357L3.03799 6.26057C2.65698 6.46878 2.33152 6.76542 2.08899 7.12557C2.03608 7.19697 2.0054 7.2824 2.00077 7.37115C1.99615 7.4599 2.01779 7.54805 2.06299 7.62457Z" fill="#131516"/>
</svg>
