<svg width="19" height="22" viewBox="0 0 19 22" fill="none" xmlns="http://www.w3.org/2000/svg">
<path d="M11.0271 19.4276C11.0271 18.0067 9.87344 16.855 8.45027 16.855C7.0271 16.855 5.87347 18.0067 5.87347 19.4275C5.87347 20.8483 7.02714 22.0001 8.45031 22.0001C9.87348 22.0001 11.0271 20.8484 11.0271 19.4276Z" fill="#F7C92B"/>
<path d="M8.45027 16.855C8.18979 16.855 7.93834 16.8939 7.70132 16.9658C8.75913 17.286 9.52922 18.2667 9.52922 19.4276C9.52922 20.5882 8.75913 21.5691 7.70132 21.8894C7.94416 21.963 8.19653 22.0003 8.45027 22.0001C9.87344 22.0001 11.0271 20.8484 11.0271 19.4276C11.0271 18.0068 9.87344 16.855 8.45027 16.855Z" fill="#F2B51D"/>
<path d="M8.75138 4.41273C7.92371 4.57868 7.11822 4.04363 6.95189 3.2173C6.78556 2.39114 7.32168 1.58685 8.14913 1.42082C8.97662 1.25483 9.78228 1.78992 9.94866 2.61621C10.1148 3.44237 9.57887 4.2467 8.75138 4.41273Z" fill="#F7C92B"/>
<path d="M9.94863 2.61621C9.78234 1.78992 8.97667 1.25483 8.14914 1.42082C8.07209 1.43629 7.99776 1.45743 7.92609 1.48325C8.40914 1.65985 8.79165 2.07579 8.90045 2.61625C9.05131 3.3655 8.62433 4.09683 7.92626 4.35026C8.19028 4.44678 8.47585 4.46839 8.75139 4.41269C9.57888 4.2467 10.1148 3.44233 9.94863 2.61621Z" fill="#F2B51D"/>
<path d="M14.8325 18.9969H2.06812C0.925878 18.9969 3.05176e-05 18.0725 3.05176e-05 16.9323C0.000103446 16.6205 0.0700548 16.3127 0.204742 16.0315C0.339428 15.7503 0.535426 15.5029 0.778324 15.3074L1.18837 14.9771C2.13687 14.2134 2.68841 13.0621 2.68841 11.8455V9.67584C2.68841 6.47449 5.28772 3.87939 8.49427 3.87939C11.7006 3.87939 14.3001 6.47449 14.3001 9.67584V11.8857C14.3002 12.4755 14.4301 13.0581 14.6805 13.5921C14.931 14.1261 15.2958 14.5985 15.7492 14.9757L16.1485 15.3081C16.3838 15.5038 16.5732 15.749 16.7031 16.0261C16.8331 16.3032 16.9004 16.6055 16.9005 16.9115V16.9323C16.9005 18.0725 15.9747 18.9968 14.8325 18.9968V18.9969Z" fill="#F7E249"/>
<path d="M16.1486 15.3083L15.7493 14.9759C14.831 14.2114 14.3001 13.0794 14.3001 11.8857V9.67579C14.3001 6.47462 11.7007 3.8794 8.49428 3.8794C7.94065 3.87905 7.38982 3.95779 6.85846 4.11323C9.26836 4.81835 11.0284 7.04181 11.0284 9.67584V11.8857C11.0284 13.0794 11.5593 14.2114 12.4776 14.9759L12.8771 15.3083C13.1123 15.504 13.3017 15.7492 13.4316 16.0263C13.5615 16.3033 13.629 16.6056 13.629 16.9117V16.9325C13.629 18.0727 12.7032 18.997 11.561 18.997H14.8326C15.9747 18.997 16.9005 18.0727 16.9005 16.9325V16.9117C16.9005 16.6056 16.8331 16.3033 16.7031 16.0262C16.5732 15.7491 16.3838 15.504 16.1486 15.3083Z" fill="#F7C92B"/>
<path d="M18.8881 4.97479C18.8881 2.22733 16.6573 0 13.9053 0C11.1533 0 8.92227 2.22733 8.92227 4.97479C8.92227 7.72226 11.1533 9.94963 13.9053 9.94963C16.6573 9.94963 18.8881 7.7223 18.8881 4.97479Z" fill="#FC476E"/>
<path d="M15.2424 0.181641C16.5132 1.08312 17.3421 2.56469 17.3421 4.23965C17.3421 6.98712 15.1113 9.21445 12.3593 9.21445C11.9074 9.21479 11.4576 9.15376 11.0222 9.03303C11.8359 9.6104 12.8309 9.94981 13.9053 9.94981C16.6571 9.94981 18.8882 7.72248 18.8882 4.97498C18.8882 2.6899 17.345 0.76507 15.2424 0.181641Z" fill="#CC2B5A"/>
<path d="M13.9053 7.29833C13.7131 7.29833 13.5574 7.14287 13.5574 6.95105V3.60117L13.4276 3.7195C13.2856 3.84871 13.0655 3.83865 12.9362 3.69681C12.9054 3.66314 12.8816 3.62372 12.866 3.58082C12.8505 3.53792 12.8436 3.49238 12.8457 3.44681C12.8478 3.40124 12.8589 3.35653 12.8783 3.31524C12.8977 3.27395 12.9251 3.2369 12.9588 3.2062L13.6708 2.55797C13.7207 2.51259 13.7827 2.48267 13.8492 2.47182C13.9158 2.46098 13.9841 2.46968 14.0458 2.49687C14.1074 2.52401 14.1599 2.5685 14.1967 2.62493C14.2335 2.68135 14.2531 2.74726 14.2531 2.81462V6.95105C14.2531 7.14287 14.0973 7.29833 13.9053 7.29833Z" fill="#E3FAFF"/>
</svg>
