<svg width="24" height="24" viewBox="0 0 24 24" fill="none" xmlns="http://www.w3.org/2000/svg">
<path d="M11.9258 0.703125C18.1649 0.703125 23.2227 5.76089 23.2227 12C23.2227 18.2391 18.1649 23.2969 11.9258 23.2969" stroke="#131516" stroke-width="1.40625" stroke-miterlimit="10" stroke-linecap="round" stroke-linejoin="round"/>
<path d="M11.9258 4.93945V12L17.5742 17.6484" stroke="#131516" stroke-width="1.40625" stroke-miterlimit="10" stroke-linecap="round" stroke-linejoin="round"/>
<path d="M7.84017 1.46507C7.84017 1.46507 8.1127 1.356 8.41378 1.26192C8.71486 1.16784 9.06403 1.06921 9.06403 1.06921M4.40953 3.56306C4.40953 3.56306 4.62656 3.36543 4.87566 3.17189C5.12475 2.97834 5.41725 2.76365 5.41725 2.76365M1.93083 6.7296C1.93083 6.7296 2.06494 6.46846 2.23045 6.19996C2.39597 5.93142 2.59477 5.6279 2.59477 5.6279M0.718031 10.5637C0.718031 10.5637 0.752203 10.2721 0.813187 9.96262C0.874172 9.65315 0.954094 9.2992 0.954094 9.2992M0.924797 14.5797C0.924797 14.5797 0.854672 14.2946 0.803437 13.9834C0.752203 13.6721 0.703125 13.3126 0.703125 13.3126M2.52488 18.2689C2.52488 18.2689 2.35936 18.0265 2.20238 17.7529C2.04534 17.4793 1.8735 17.1597 1.8735 17.1597M5.31563 21.1642C5.31563 21.1642 5.07572 20.9951 4.83281 20.7938C4.58991 20.5925 4.31705 20.3534 4.31705 20.3534M8.94361 22.8988C8.94361 22.8988 8.65964 22.8244 8.36166 22.7209C8.06367 22.6174 7.7243 22.489 7.7243 22.489" stroke="#131516" stroke-width="1.40625" stroke-miterlimit="10" stroke-linecap="round" stroke-linejoin="round" stroke-dasharray="1.41 2.67"/>
</svg>
