<svg width="24" height="24" viewBox="0 0 24 24" fill="none" xmlns="http://www.w3.org/2000/svg">
<g clip-path="url(#clip0_141_1190)">
<path d="M6.08031 8.84954C6.38987 9.40078 6.15228 9.90053 6.19572 10.4226C6.23377 10.8795 6.41956 11.3751 6.66478 11.7718C7.15241 12.5606 7.95527 12.9329 8.67626 13.4763C10.4503 14.8133 12.2596 15.0833 12.3794 12.3562C12.4475 10.8061 12.5471 8.52712 11.3891 7.37199C9.99183 5.97821 6.76754 6.40345 6.01538 8.26507" fill="#2A2E6D"/>
<path d="M17.7151 8.84954C17.4056 9.40078 17.6431 9.90053 17.5997 10.4226C17.5617 10.8795 17.3759 11.3751 17.1307 11.7718C16.643 12.5606 15.8402 12.933 15.1191 13.4764C13.3451 14.8133 11.5357 15.0833 11.416 12.3562C11.3479 10.8061 11.2483 8.52712 12.4064 7.37199C13.8036 5.97821 17.0279 6.40345 17.7801 8.26507" fill="#2A2E6D"/>
<path d="M23.083 24.0002C23.1855 21.2307 21.4413 20.1657 21.4413 20.1657L14.093 16.0115H9.9067L2.55864 20.1657C2.55864 20.1657 0.814493 21.2307 0.91694 24.0002H23.083Z" fill="#F9C5B8"/>
<path d="M9.38403 16.5487H14.6159C13.4567 15.9227 13.7691 13.5164 13.7691 13.5164H10.2309C10.2309 13.5164 10.5433 15.9227 9.38403 16.5487Z" fill="#F9C5B8"/>
<path d="M10.1584 15.3256C11.4084 15.1829 12.6318 14.7639 13.7315 14.1445C13.7358 13.7751 13.7692 13.5165 13.7692 13.5165H10.2309C10.2309 13.5165 10.3537 14.4647 10.1584 15.3256ZM18.1027 8.15538C17.9925 9.0065 17.5109 9.63859 17.0269 9.56705C16.5429 9.49545 16.2398 8.74742 16.3498 7.89625C16.46 7.04508 16.9417 6.41298 17.4257 6.48453C17.9097 6.55612 18.2127 7.30416 18.1027 8.15538Z" fill="#F5A997"/>
<path d="M17.0199 8.93497C16.9872 8.93493 16.9555 8.92395 16.9298 8.9038C16.9042 8.88365 16.886 8.85549 16.8781 8.82379C16.7575 8.33537 16.7027 7.75651 17.2107 7.16717C17.2233 7.15264 17.2385 7.14071 17.2557 7.13208C17.2728 7.12345 17.2915 7.11827 17.3106 7.11685C17.3297 7.11544 17.349 7.1178 17.3672 7.12382C17.3854 7.12983 17.4023 7.13937 17.4168 7.1519C17.4313 7.16443 17.4433 7.1797 17.4519 7.19684C17.4605 7.21398 17.4657 7.23265 17.4671 7.25178C17.4685 7.27092 17.4662 7.29015 17.4602 7.30837C17.4542 7.32659 17.4446 7.34345 17.4321 7.35799C16.991 7.86964 17.0613 8.34674 17.1618 8.75378C17.1671 8.77531 17.1675 8.79778 17.1628 8.81947C17.1582 8.84116 17.1487 8.86152 17.135 8.87898C17.1213 8.89644 17.1038 8.91056 17.0839 8.92026C17.0639 8.92996 17.042 8.93499 17.0199 8.93497Z" fill="#E9837B"/>
<path d="M17.5111 8.08668C17.5021 8.08668 17.493 8.08584 17.4837 8.08409C17.2492 8.03969 17.0076 8.08377 17.0051 8.08414C16.967 8.09121 16.9277 8.08291 16.8958 8.06106C16.8638 8.03922 16.8418 8.0056 16.8346 7.96757C16.8274 7.92954 16.8356 7.89022 16.8574 7.85824C16.8792 7.82626 16.9128 7.80424 16.9508 7.79702C16.9628 7.79474 17.2477 7.74182 17.5383 7.79702C17.5741 7.80365 17.6062 7.82346 17.6282 7.85256C17.6502 7.88166 17.6605 7.91794 17.6571 7.95426C17.6537 7.99058 17.6368 8.02431 17.6098 8.04882C17.5828 8.07333 17.5476 8.08683 17.5111 8.08668Z" fill="#E9837B"/>
<path d="M5.89733 8.15538C6.0075 9.0065 6.4891 9.63859 6.97313 9.56705C7.45711 9.49545 7.76022 8.74742 7.65015 7.89625C7.53998 7.04508 7.05833 6.41298 6.57435 6.48453C6.09037 6.55612 5.78726 7.30416 5.89733 8.15538Z" fill="#F5A997"/>
<path d="M6.97994 8.93499C6.95776 8.93502 6.93585 8.93 6.9159 8.9203C6.89594 8.9106 6.87845 8.89649 6.86477 8.87902C6.85108 8.86156 6.84156 8.8412 6.83691 8.8195C6.83227 8.79781 6.83263 8.77534 6.83797 8.7538C6.93846 8.34676 7.00878 7.86966 6.56767 7.35801C6.54236 7.32865 6.52976 7.29044 6.53263 7.25179C6.5355 7.21313 6.5536 7.1772 6.58296 7.1519C6.5975 7.13937 6.61436 7.12982 6.63259 7.12381C6.65081 7.1178 6.67005 7.11544 6.68918 7.11686C6.72784 7.11972 6.76377 7.13783 6.78907 7.16719C7.29713 7.75653 7.24231 8.33539 7.12166 8.82381C7.11384 8.85551 7.09565 8.88367 7.06996 8.90382C7.04428 8.92397 7.01259 8.93495 6.97994 8.93499Z" fill="#E9837B"/>
<path d="M6.48891 8.08676C6.45263 8.08656 6.41773 8.07288 6.39097 8.04838C6.36422 8.02388 6.34753 7.99031 6.34414 7.95419C6.34076 7.91807 6.35092 7.88199 6.37266 7.85294C6.3944 7.8239 6.42616 7.80397 6.46177 7.79704C6.75239 7.74179 7.03718 7.79476 7.0492 7.79704C7.08678 7.80476 7.11981 7.82696 7.14118 7.85882C7.16254 7.89069 7.17051 7.92968 7.16338 7.96738C7.15624 8.00508 7.13457 8.03846 7.10305 8.06032C7.07152 8.08218 7.03266 8.09076 6.99485 8.08422C6.99078 8.08343 6.75 8.03993 6.51632 8.08417C6.50729 8.08589 6.49811 8.08675 6.48891 8.08676Z" fill="#E9837B"/>
<path d="M16.9021 6.11565C16.8154 3.68734 15.325 0.687521 12.269 0.703925H11.6445C8.58856 0.687468 7.09831 3.68728 7.01147 6.11565C6.92427 8.55639 7.67262 11.3713 9.19261 12.8682C9.9053 13.57 10.9864 13.9075 11.9568 13.9244C12.9271 13.9075 14.0082 13.57 14.7209 12.8682C16.2411 11.3713 16.9894 8.55639 16.9021 6.11565Z" fill="#F9C5B8"/>
<path d="M16.9078 6.34482C16.6157 6.3272 16.4754 6.32614 16.4423 6.88584C16.4423 6.88584 16.1585 10.4485 15.1086 10.9356C14.6298 10.984 14.3715 10.6734 14.0283 10.4673C13.4804 10.1382 12.8979 10.5831 12.3833 10.7593C12.2514 10.8045 12.1244 10.8281 12.001 10.8337C11.9863 10.8341 11.9717 10.8347 11.9568 10.8346C11.942 10.8347 11.9273 10.8341 11.9125 10.8337C11.7891 10.8281 11.6621 10.8045 11.5303 10.7593C11.0157 10.5831 10.4332 10.1382 9.88524 10.4673C9.54207 10.6734 9.28373 10.984 8.80499 10.9356C7.75506 10.4485 7.47121 6.88584 7.47121 6.88584C7.43814 6.32614 7.29791 6.3272 7.00576 6.34482C6.97162 8.73048 7.71998 11.4179 9.19261 12.8683C9.88148 13.5465 10.9142 13.8835 11.8588 13.9207C11.8915 13.9221 11.9243 13.924 11.9567 13.9246C12.9271 13.9076 14.0083 13.5701 14.7209 12.8683C16.1936 11.4179 16.942 8.73048 16.9078 6.34482Z" fill="#2A2E6D"/>
<path d="M14.093 16.0115L21.4413 20.1657C21.4413 20.1657 23.1855 21.2307 23.083 24.0002H0.91694C0.814493 21.2307 2.55864 20.1657 2.55864 20.1657L9.9067 16.0115C9.9067 16.0115 12.1252 17.3737 14.093 16.0115Z" fill="#9CAAD8"/>
<path d="M14.093 16.0115L21.4413 20.1657C21.4413 20.1657 23.1855 21.2307 23.083 24.0002H0.91694C0.814493 21.2307 2.55864 20.1657 2.55864 20.1657L9.9067 16.0115C9.9067 16.0115 12.1252 17.3737 14.093 16.0115Z" fill="#646DB2"/>
<path d="M9.773 9.43044C10.4274 9.43044 10.9579 9.18947 10.9579 8.89222C10.9579 8.59497 10.4274 8.354 9.773 8.354C9.11862 8.354 8.58813 8.59497 8.58813 8.89222C8.58813 9.18947 9.11862 9.43044 9.773 9.43044Z" fill="#F6AFA8"/>
<path d="M14.1407 9.43044C14.7951 9.43044 15.3255 9.18947 15.3255 8.89222C15.3255 8.59497 14.7951 8.354 14.1407 8.354C13.4863 8.354 12.9558 8.59497 12.9558 8.89222C12.9558 9.18947 13.4863 9.43044 14.1407 9.43044Z" fill="#F6AFA8"/>
<path d="M10.6697 6.14013C10.6553 6.27903 10.5455 6.37211 10.4245 6.36053C9.98224 6.31682 9.53626 6.39079 9.13176 6.57495C9.0209 6.62501 8.88702 6.57235 8.8285 6.44546C8.77013 6.31888 8.82463 6.15711 8.95502 6.09806C9.41896 5.88679 9.93052 5.80197 10.4378 5.8522C10.5802 5.86591 10.6841 6.00148 10.6697 6.14013ZM13.2442 6.14013C13.2586 6.27903 13.3684 6.37211 13.4894 6.36053C13.9317 6.31682 14.3776 6.39079 14.7821 6.57495C14.893 6.62501 15.0269 6.57235 15.0854 6.44546C15.1438 6.31888 15.0893 6.15711 14.9589 6.09806C14.4949 5.88679 13.9834 5.80197 13.4761 5.8522C13.3336 5.86591 13.2298 6.00148 13.2442 6.14013Z" fill="#2A2E6D"/>
<path d="M11.9082 10.602C11.8896 10.602 11.8708 10.5984 11.8526 10.5909C11.5384 10.4616 11.3673 10.3164 11.3142 10.1338C11.2443 9.89298 11.3977 9.67586 11.5601 9.44604C11.6618 9.30216 11.767 9.15341 11.8181 8.99773C11.8302 8.96092 11.8565 8.93043 11.891 8.91294C11.9256 8.89546 11.9657 8.89242 12.0026 8.90449C12.0394 8.91661 12.0699 8.94285 12.0873 8.97743C12.1048 9.01202 12.1079 9.05213 12.0958 9.08896C12.031 9.28623 11.9076 9.46075 11.7988 9.61474C11.6782 9.78545 11.5643 9.94669 11.5949 10.0523C11.6125 10.1127 11.6907 10.2083 11.9638 10.3207C11.9951 10.3335 12.021 10.3569 12.037 10.3867C12.053 10.4165 12.0581 10.451 12.0516 10.4842C12.045 10.5174 12.0271 10.5473 12.001 10.5687C11.9748 10.5902 11.942 10.602 11.9082 10.602Z" fill="#E9837B"/>
<path d="M10.0119 8.35356C10.227 8.35356 10.4015 8.02497 10.4015 7.61965C10.4015 7.21432 10.227 6.88574 10.0119 6.88574C9.79673 6.88574 9.62231 7.21432 9.62231 7.61965C9.62231 8.02497 9.79673 8.35356 10.0119 8.35356Z" fill="#2A2D6B"/>
<path d="M13.902 8.35356C14.1172 8.35356 14.2916 8.02497 14.2916 7.61965C14.2916 7.21432 14.1172 6.88574 13.902 6.88574C13.6869 6.88574 13.5125 7.21432 13.5125 7.61965C13.5125 8.02497 13.6869 8.35356 13.902 8.35356Z" fill="#2A2D6B"/>
<path d="M10.9165 11.0876C11.0623 11.5228 11.4726 11.8367 11.9568 11.8367C12.441 11.8367 12.8512 11.5228 12.997 11.0876H10.9165Z" fill="white"/>
<path d="M12 0.391104V2.27479C10.453 2.29411 9.30945 2.76428 8.82394 3.6056C8.28582 4.53811 8.68064 6.25823 8.07728 6.82016C7.70913 7.16301 7.1734 6.51477 6.75546 6.59378C5.82867 6.5987 5.87445 7.78626 5.87498 7.79997C5.87588 7.79981 5.96837 7.80044 5.87498 7.80044C5.4509 6.83974 5.05122 5.95374 5.64024 5.03246C5.91604 4.60103 6.18486 4.44931 6.27519 3.91406C6.36234 3.39743 6.2555 2.95197 6.46844 2.48339C7.1552 0.971975 8.74938 0.301304 10.2996 0.0605314C10.2997 0.0605844 11.8539 -0.209557 12 0.391104Z" fill="#2A2E6D"/>
<path d="M12 0.391104V2.27479C13.547 2.29411 14.6911 2.76428 15.1767 3.6056C15.7148 4.53811 15.32 6.25823 15.9233 6.82016C16.2915 7.16301 16.8273 6.51477 17.2451 6.59378C18.1719 6.5987 18.1262 7.78626 18.1256 7.79997C18.1247 7.79981 18.0322 7.80044 18.1256 7.80044C18.5497 6.83974 18.9494 5.95374 18.3604 5.03246C18.0846 4.60103 17.8157 4.44931 17.7254 3.91406C17.6383 3.39743 17.7451 2.95197 17.5322 2.48339C16.8454 0.971975 15.2512 0.301304 13.701 0.0605314C13.7009 0.0605844 12.1461 -0.209557 12 0.391104Z" fill="#2A2E6D"/>
<path d="M9.46913 9.59621C8.3159 9.59621 7.37769 8.65799 7.37769 7.50477C7.37769 6.35155 8.3159 5.41333 9.46913 5.41333C10.6225 5.41333 11.5608 6.35155 11.5608 7.50477C11.5608 8.65799 10.6225 9.59621 9.46913 9.59621ZM9.46913 5.80296C8.53075 5.80296 7.76731 6.56639 7.76731 7.50477C7.76731 8.44315 8.53075 9.20658 9.46913 9.20658C10.4076 9.20658 11.1711 8.44315 11.1711 7.50477C11.1711 6.56639 10.4076 5.80296 9.46913 5.80296ZM14.446 9.59621C13.2928 9.59621 12.3545 8.65799 12.3545 7.50477C12.3545 6.35155 13.2928 5.41333 14.446 5.41333C15.5992 5.41333 16.5375 6.35155 16.5375 7.50477C16.5375 8.65799 15.5992 9.59621 14.446 9.59621ZM14.446 5.80296C13.5076 5.80296 12.7442 6.56639 12.7442 7.50477C12.7442 8.44315 13.5076 9.20658 14.446 9.20658C15.3844 9.20658 16.1478 8.44315 16.1478 7.50477C16.1478 6.56639 15.3844 5.80296 14.446 5.80296Z" fill="white"/>
<path d="M7.63465 8.19775H7.05251C7.00083 8.19775 6.95127 8.17722 6.91473 8.14068C6.87819 8.10414 6.85767 8.05459 6.85767 8.00291C6.85767 7.95124 6.87819 7.90168 6.91473 7.86514C6.95127 7.8286 7.00083 7.80807 7.05251 7.80807H7.63465C7.68632 7.80807 7.73588 7.8286 7.77242 7.86514C7.80896 7.90168 7.82949 7.95124 7.82949 8.00291C7.82949 8.05459 7.80896 8.10414 7.77242 8.14068C7.73588 8.17722 7.68632 8.19775 7.63465 8.19775ZM16.8614 8.19775H16.2597C16.208 8.19775 16.1585 8.17722 16.1219 8.14068C16.0854 8.10414 16.0649 8.05459 16.0649 8.00291C16.0649 7.95124 16.0854 7.90168 16.1219 7.86514C16.1585 7.8286 16.208 7.80807 16.2597 7.80807H16.8614C16.913 7.80807 16.9626 7.8286 16.9991 7.86514C17.0357 7.90168 17.0562 7.95124 17.0562 8.00291C17.0562 8.05459 17.0357 8.10414 16.9991 8.14068C16.9626 8.17722 16.913 8.19775 16.8614 8.19775ZM11.3659 7.72737C11.329 7.72735 11.2928 7.71684 11.2616 7.69705C11.2304 7.67727 11.2055 7.64903 11.1898 7.61563C11.174 7.58223 11.1681 7.54504 11.1726 7.50839C11.1772 7.47175 11.1921 7.43716 11.2156 7.40865C11.2288 7.39262 11.5441 7.01611 11.9843 7.01611C12.2504 7.01611 12.4942 7.14819 12.7088 7.40865C12.7252 7.42838 12.7376 7.45116 12.7452 7.47568C12.7528 7.5002 12.7555 7.52599 12.7531 7.55155C12.7507 7.57711 12.7433 7.60195 12.7312 7.62463C12.7192 7.64731 12.7028 7.66739 12.683 7.68372C12.6632 7.70005 12.6404 7.7123 12.6158 7.71976C12.5912 7.72723 12.5654 7.72978 12.5399 7.72724C12.5143 7.72471 12.4895 7.71715 12.4669 7.70501C12.4443 7.69286 12.4243 7.67636 12.4081 7.65646C12.271 7.49009 12.1284 7.40579 11.9842 7.40579C11.7299 7.40579 11.5183 7.65398 11.5162 7.65646C11.498 7.67869 11.475 7.69658 11.449 7.70884C11.423 7.72111 11.3946 7.72744 11.3659 7.72737Z" fill="white"/>
</g>
<defs>
<clipPath id="clip0_141_1190">
<rect width="24" height="24" fill="white"/>
</clipPath>
</defs>
</svg>
