<?xml version="1.0" encoding="UTF-8"?>
<svg version="1.1" xmlns="http://www.w3.org/2000/svg" width="1875" height="1739">
<path d="M0 0 C1.81798832 -0.00702274 3.63597639 -0.01410956 5.45396423 -0.02125549 C11.23493809 -0.04066166 17.01587186 -0.04568993 22.796875 -0.046875 C24.27465612 -0.04753778 24.27465612 -0.04753778 25.78229141 -0.04821396 C55.80700259 -0.05527618 85.64149514 0.26461583 115.546875 3.203125 C116.45977295 3.29033813 117.3726709 3.37755127 118.31323242 3.46740723 C202.89263411 11.54937443 286.32718417 28.77786619 482.4921875 109.03515625 C487.08041146 111.4504285 491.70015747 113.78459584 496.35522461 116.06787109 C539.16165772 137.06660731 578.89322787 164.10048976 616.546875 193.203125 C617.23475098 193.73357422 617.92262695 194.26402344 618.63134766 194.81054688 C626.07211396 200.55858179 633.32763123 206.48640731 640.47265625 212.59765625 C643.24386655 214.96176687 646.07614689 217.24156458 648.921875 219.515625 C654.91429828 224.38501727 660.48493996 229.67720553 666.09765625 234.97265625 C668.65597099 237.38230379 671.25188507 239.7293462 673.921875 242.015625 C677.5927476 245.17003284 680.95381843 248.59524732 684.3515625 252.0390625 C686.23567987 253.8963597 688.15186462 255.62292143 690.171875 257.328125 C699.03147709 264.93989581 707.41311185 273.46005173 714.9453125 282.3828125 C716.88724922 284.58998936 718.95425624 286.63850114 721.046875 288.703125 C724.41787565 292.03433307 727.5920153 295.45424128 730.67578125 299.05078125 C732.87767329 301.58364662 735.14883326 304.04645022 737.421875 306.515625 C741.49547409 310.98186014 745.35515203 315.57233879 749.1484375 320.27734375 C751.31923953 322.92543939 753.53982123 325.51458923 755.7890625 328.09545898 C761.8928521 335.10948016 767.59297219 342.36662698 773.1953125 349.78515625 C776.01580772 353.51904144 778.88898483 357.2083372 781.77978516 360.88793945 C836.49376986 430.63730901 881.27374466 510.82048379 964.546875 816.203125 C964.63275879 817.36369919 964.71864258 818.52427338 964.80712891 819.72001648 C965.64390545 831.88001668 965.72808489 844.02223584 965.75 856.20703125 C965.75282738 857.2889015 965.75565475 858.37077175 965.75856781 859.48542595 C965.77346951 865.2309276 965.78275121 870.97640481 965.78710938 876.72192383 C965.79145859 881.37662751 965.80522451 886.03114214 965.828125 890.68579102 C965.96779458 919.67737516 965.33978193 948.33809912 962.546875 977.203125 C962.39324493 978.85264664 962.39324493 978.85264664 962.23651123 980.53549194 C961.69609602 986.29050171 961.07000166 992.02928359 960.359375 997.765625 C960.25838501 998.5976947 960.15739502 999.4297644 960.05334473 1000.28704834 C955.68703693 1035.9667539 949.14939851 1071.30685295 940.546875 1106.203125 C940.36207581 1106.95563538 940.17727661 1107.70814575 939.98687744 1108.48345947 C926.96499124 1161.28592574 908.71316783 1213.00087227 885.546875 1262.203125 C885.26734985 1262.79786621 884.98782471 1263.39260742 884.6998291 1264.00537109 C872.93695853 1289.01207911 860.41711961 1313.51522149 846.28320312 1337.27441406 C844.54970249 1340.19835579 842.83487749 1343.13250347 841.125 1346.0703125 C835.35683846 1355.95991036 829.45690591 1365.68641777 822.97216797 1375.12255859 C821.32036677 1377.53376959 819.68548167 1379.95607024 818.05078125 1382.37890625 C806.08791083 1400.07359781 793.63659742 1417.32602097 780.546875 1434.203125 C779.82371094 1435.13898437 779.82371094 1435.13898437 779.0859375 1436.09375 C772.90918543 1444.07916428 766.54771823 1451.87676565 759.97363281 1459.53808594 C758.49064299 1461.26874825 757.01439534 1463.00499494 755.5390625 1464.7421875 C750.06229008 1471.17875247 744.50436807 1477.51560859 738.7890625 1483.7421875 C736.77659393 1485.95099447 734.81029484 1488.19005798 732.859375 1490.453125 C730.1594454 1493.56405091 727.31048607 1496.4639911 724.37060547 1499.34692383 C722.69315622 1501.05423931 721.14874569 1502.80866004 719.60546875 1504.63671875 C714.90989901 1510.03519578 709.84345706 1515.05630536 704.77709961 1520.10327148 C703.11261223 1521.7623982 701.45354053 1523.42680551 699.79492188 1525.09179688 C694.73483515 1530.15471907 689.67106723 1535.14605539 684.19702148 1539.76733398 C682.39376021 1541.33635005 680.72011063 1542.99683228 679.046875 1544.703125 C676.05815163 1547.73907425 672.92981021 1550.54821159 669.703125 1553.328125 C667.34724542 1555.37671594 665.0418004 1557.47515502 662.734375 1559.578125 C658.41777787 1563.4735907 653.9728637 1567.17170718 649.453125 1570.828125 C646.89392912 1572.91951088 644.3709597 1575.04379864 641.85864258 1577.19067383 C634.58075684 1583.40745192 627.12412158 1589.35635292 619.546875 1595.203125 C618.7518457 1595.81881348 617.95681641 1596.43450195 617.13769531 1597.06884766 C581.1427746 1624.90537329 544.04065664 1646.50894882 498.546875 1654.203125 C497.50112305 1654.38190186 496.45537109 1654.56067871 495.37792969 1654.74487305 C485.29820967 1656.28593621 475.37811317 1656.54301332 465.19726562 1656.51879883 C462.44620539 1656.51565282 459.69623983 1656.53914538 456.9453125 1656.56445312 C414.41212069 1656.71672756 371.38221007 1644.35214101 340.546875 1614.203125 C338.1210015 1611.60994988 335.83541854 1608.91720272 333.546875 1606.203125 C327.651287 1599.54904029 321.62277274 1593.0176962 315.5859375 1586.4921875 C312.73021042 1583.40437593 309.88663556 1580.30561729 307.046875 1577.203125 C303.22358585 1573.02712881 299.38924191 1568.86157351 295.546875 1564.703125 C291.70450764 1560.54467601 287.87025926 1556.37903451 284.046875 1552.203125 C278.73487684 1546.40205238 273.40093144 1540.62143359 268.06298828 1534.84423828 C266.05640841 1532.67222058 264.05073808 1530.49936427 262.04516602 1528.32641602 C261.04443342 1527.24219392 260.04361931 1526.15804706 259.04272461 1525.07397461 C256.56626174 1522.39164245 254.09072228 1519.70847024 251.6171875 1517.0234375 C246.25975087 1511.21012459 240.88335626 1505.41539179 235.484375 1499.640625 C230.3732548 1494.17297979 225.29722308 1488.67540341 220.24609375 1483.15234375 C212.44394068 1474.62756 204.58041 1466.16090492 196.68823242 1457.71948242 C192.22417663 1452.94021541 187.80269531 1448.12419899 183.390625 1443.296875 C180.1332274 1439.74335035 176.83982988 1436.22367071 173.546875 1432.703125 C168.46031925 1427.26501464 163.41420075 1421.79325788 158.390625 1416.296875 C155.1332274 1412.74335035 151.83982988 1409.22367071 148.546875 1405.703125 C143.46031925 1400.26501464 138.41420075 1394.79325788 133.390625 1389.296875 C130.1332274 1385.74335035 126.83982988 1382.22367071 123.546875 1378.703125 C119.35708222 1374.22375691 115.18478634 1369.73048682 111.046875 1365.203125 C106.33560212 1360.04908932 101.57788108 1354.9401879 96.80859375 1349.83984375 C92.54980782 1345.28350072 88.3136566 1340.70703284 84.08837891 1336.11962891 C80.23821381 1331.94320023 76.36406621 1327.78962233 72.484375 1323.640625 C67.41786368 1318.22166072 62.39196435 1312.76860454 57.38671875 1307.29296875 C53.55656229 1303.11473985 49.67991143 1298.9798863 45.80859375 1294.83984375 C41.54980782 1290.28350072 37.3136566 1285.70703284 33.08837891 1281.11962891 C29.23821381 1276.94320023 25.36406621 1272.78962233 21.484375 1268.640625 C16.41786368 1263.22166072 11.39196435 1257.76860454 6.38671875 1252.29296875 C2.55656229 1248.11473985 -1.32008857 1243.9798863 -5.19140625 1239.83984375 C-9.44241038 1235.29182623 -13.67291954 1230.72562241 -17.88745117 1226.14379883 C-20.67977141 1223.11180249 -23.48844023 1220.09623013 -26.3125 1217.09375 C-27.28316406 1216.06024414 -27.28316406 1216.06024414 -28.2734375 1215.00585938 C-29.54217039 1213.6562255 -30.81294742 1212.30850981 -32.0859375 1210.96289062 C-36.453125 1206.31410846 -36.453125 1206.31410846 -36.453125 1205.203125 C-34.78636172 1205.32683009 -33.11972671 1205.45226185 -31.453125 1205.578125 C-30.26460937 1205.66707031 -29.07609375 1205.75601562 -27.8515625 1205.84765625 C-24.58224968 1206.1023781 -21.31894075 1206.40209069 -18.0546875 1206.71484375 C64.7260352 1214.47790644 144.46421446 1188.48653454 209.109375 1136.828125 C220.33333197 1127.52293829 231.79282107 1117.3556981 240.921875 1105.953125 C241.58960938 1105.12296875 242.25734375 1104.2928125 242.9453125 1103.4375 C243.32776123 1102.95788818 243.71020996 1102.47827637 244.10424805 1101.98413086 C245.24320303 1100.57802549 246.39942742 1099.18590899 247.56176758 1097.79907227 C252.95630419 1091.32805648 257.845392 1084.67055713 262.484375 1077.640625 C263.1767627 1076.59269775 263.86915039 1075.54477051 264.58251953 1074.46508789 C290.16851474 1035.35796552 306.50202904 988.52911809 306.75 941.4453125 C306.75701431 940.54755096 306.76402863 939.64978943 306.77125549 938.724823 C306.78866176 935.84253867 306.7951082 932.96045997 306.796875 930.078125 C306.79754974 929.09203247 306.79822449 928.10593994 306.79891968 927.08996582 C306.78276418 912.23234211 306.27897183 897.84449855 303.546875 883.203125 C303.37526855 882.23681152 303.20366211 881.27049805 303.02685547 880.27490234 C295.22301165 837.01552502 278.12769658 792.50263617 247.546875 760.203125 C246.35321129 758.83347241 245.16542128 757.45867234 243.984375 756.078125 C237.96425738 749.20389458 231.50915321 743.18778351 224.375 737.4765625 C222.57302555 736.02801398 220.78935628 734.55617578 219.03125 733.0546875 C147.86026421 672.58118117 44.04931042 655.63782288 -46.40093994 662.68031311 C-79.30706223 665.37528287 -111.24035622 672.58850467 -142.453125 683.203125 C-143.57493164 683.58307617 -144.69673828 683.96302734 -145.85253906 684.35449219 C-186.89972606 698.45066196 -226.40633925 719.1297779 -260.66992188 745.81689453 C-262.41698715 747.17503208 -264.17491243 748.51755899 -265.9375 749.85546875 C-275.85900163 757.39908982 -285.49325473 765.18731949 -294.65234375 773.6484375 C-296.12644289 774.99301328 -297.60549187 776.33313018 -299.12329102 777.62817383 C-305.15895033 782.78129366 -310.75635733 788.35448192 -316.35327148 793.97290039 C-318.0123982 795.63738777 -319.67680551 797.29645947 -321.34179688 798.95507812 C-326.92239365 804.53181892 -332.35825572 810.17398669 -337.453125 816.203125 C-338.43741162 817.33324379 -339.42305884 818.4621792 -340.41015625 819.58984375 C-347.05517022 827.24914495 -353.38530957 835.07831593 -359.453125 843.203125 C-359.99227539 843.92161621 -360.53142578 844.64010742 -361.08691406 845.38037109 C-368.87531876 855.77578227 -376.45930909 866.25492267 -383.453125 877.203125 C-383.93571777 877.95722656 -384.41831055 878.71132813 -384.91552734 879.48828125 C-440.63445485 967.00896662 -465.59748391 1062.96669015 -474.65625 1165.3046875 C-474.722677 1166.03797272 -474.789104 1166.77125793 -474.85754395 1167.52676392 C-476.09569799 1181.91514896 -476.61739774 1196.29329824 -476.65625 1210.73046875 C-476.663275 1212.35883103 -476.67036179 1213.98719305 -476.67750549 1215.61555481 C-476.69689748 1220.79058228 -476.70193999 1225.96556486 -476.703125 1231.140625 C-476.70356686 1232.02343643 -476.70400871 1232.90624786 -476.70446396 1233.81581116 C-476.71139197 1260.22267505 -476.45544053 1286.48305192 -473.70635986 1312.77270508 C-473.44083863 1315.32104338 -473.18642818 1317.87034376 -472.93310547 1320.41992188 C-465.92972831 1390.08674232 -450.96898486 1458.31777296 -430.453125 1525.203125 C-430.21527283 1525.97962402 -429.97742065 1526.75612305 -429.73236084 1527.55615234 C-421.35914052 1554.81625433 -411.63526171 1581.5710577 -401.453125 1608.203125 C-401.07250916 1609.20119171 -401.07250916 1609.20119171 -400.6842041 1610.21942139 C-384.72738792 1651.9549096 -362.0385392 1692.10287796 -334.31176758 1727.10400391 C-330.453125 1732.00411959 -330.453125 1732.00411959 -330.453125 1734.203125 C-337.77667793 1731.91259955 -344.70430344 1729.02786868 -351.703125 1725.890625 C-353.45846558 1725.10655273 -353.45846558 1725.10655273 -355.24926758 1724.30664062 C-368.79025235 1718.22842867 -382.13043473 1711.74273709 -395.453125 1705.203125 C-396.52224121 1704.68218262 -397.59135742 1704.16124023 -398.69287109 1703.62451172 C-412.64790955 1696.82085639 -426.24621698 1689.5460527 -439.69335938 1681.78808594 C-442.35978159 1680.25673305 -445.0366891 1678.74594973 -447.71875 1677.2421875 C-477.67848477 1660.40325698 -506.64904916 1641.40536254 -534.453125 1621.203125 C-535.21625 1620.64963379 -535.979375 1620.09614258 -536.765625 1619.52587891 C-547.16624229 1611.96501349 -557.43027211 1604.25848799 -567.453125 1596.203125 C-568.0934668 1595.6889502 -568.73380859 1595.17477539 -569.39355469 1594.64501953 C-576.96998598 1588.54981901 -584.48421987 1582.38825761 -591.88012695 1576.07495117 C-595.10660618 1573.32402671 -598.38519979 1570.65499708 -601.703125 1568.015625 C-607.49280931 1563.31416329 -612.87241548 1558.19870161 -618.26464844 1553.05004883 C-618.94946289 1552.39673584 -619.63427734 1551.74342285 -620.33984375 1551.0703125 C-620.94014404 1550.49394043 -621.54044434 1549.91756836 -622.15893555 1549.32373047 C-624.10300565 1547.52675346 -626.08177413 1545.79965228 -628.08886719 1544.07446289 C-633.07196336 1539.7283114 -637.72610231 1535.07373157 -642.39453125 1530.39453125 C-643.32103989 1529.46897934 -644.24754852 1528.54342743 -645.20213318 1527.58982849 C-647.15094861 1525.64247645 -649.09797237 1523.69335587 -651.04370117 1521.74291992 C-653.51676361 1519.26416105 -655.99429033 1516.78992069 -658.47319126 1514.3170023 C-660.86608701 1511.92862355 -663.25512818 1509.5364042 -665.64453125 1507.14453125 C-666.52387833 1506.2672084 -667.4032254 1505.38988556 -668.30921936 1504.48597717 C-672.69697122 1500.08165227 -676.95154351 1495.62139679 -680.99586487 1490.89849854 C-683.20390661 1488.32966717 -685.51934576 1485.86926938 -687.828125 1483.390625 C-692.09831759 1478.76878669 -696.13537873 1474.00888552 -700.08203125 1469.10546875 C-702.77144597 1465.81348335 -705.54509315 1462.6033148 -708.328125 1459.390625 C-714.26758475 1452.49973016 -719.90664235 1445.41236111 -725.453125 1438.203125 C-726.0620459 1437.41486328 -726.6709668 1436.62660156 -727.29833984 1435.81445312 C-753.61198176 1401.71643996 -777.43505787 1365.80257976 -798.453125 1328.203125 C-798.92008789 1327.37361328 -799.38705078 1326.54410156 -799.86816406 1325.68945312 C-842.93229505 1249.01794265 -874.25072571 1165.43358084 -906.203125 983.80609131 C-906.36694186 982.10045224 -906.53350812 980.39507449 -906.703125 978.69000244 C-912.10774831 924.29927818 -911.96637171 867.57551084 -906.453125 813.203125 C-906.36826843 812.34932251 -906.28341187 811.49552002 -906.19598389 810.61584473 C-902.03665976 768.99556354 -895.11191176 727.89440462 -885.453125 687.203125 C-885.28703735 686.50094849 -885.12094971 685.79877197 -884.9498291 685.07531738 C-867.02223397 609.54430182 -838.22755917 534.17335543 -797.94921875 467.68701172 C-796.56191528 465.38374386 -795.20349911 463.06694487 -793.859375 460.73828125 C-783.24073044 442.34698499 -771.58643651 424.62443289 -759.453125 407.203125 C-758.96666504 406.49913574 -758.48020508 405.79514648 -757.97900391 405.06982422 C-750.07888832 393.63776653 -741.74039393 382.56763413 -733.26416016 371.55761719 C-731.67998388 369.49805989 -730.10176425 367.43420447 -728.52734375 365.3671875 C-724.00925433 359.44375468 -719.39568686 353.61217898 -714.65234375 347.8671875 C-713.20907458 346.11885788 -711.77387485 344.3638289 -710.34765625 342.6015625 C-701.23782943 331.35117528 -691.71096466 320.47736179 -681.8828125 309.8515625 C-679.78253365 307.56219103 -677.73147312 305.24350882 -675.703125 302.890625 C-673.02439844 299.79733361 -670.19311037 296.91915017 -667.27270508 294.05517578 C-665.61641125 292.36932512 -664.09538646 290.63909307 -662.57421875 288.83203125 C-657.59643786 283.10909723 -652.19885941 277.79957217 -646.82885742 272.44848633 C-645.01951567 270.64450415 -643.21558181 268.83523835 -641.41210938 267.02539062 C-636.16123475 261.77144113 -630.91588455 256.57760539 -625.25756836 251.75805664 C-621.88612162 248.85280102 -618.68354388 245.76318976 -615.453125 242.703125 C-610.22039053 237.74633552 -604.90559615 232.9172697 -599.453125 228.203125 C-598.8869043 227.70941406 -598.32068359 227.21570313 -597.73730469 226.70703125 C-590.90991425 220.75599243 -583.9898419 214.96514156 -576.83422852 209.41235352 C-573.08886937 206.50285963 -569.40218986 203.53342999 -565.7421875 200.51733398 C-556.98626184 193.31121582 -547.95283015 186.5446873 -538.77197266 179.89111328 C-536.6278425 178.33030933 -534.49750113 176.75278811 -532.37109375 175.16796875 C-466.22254666 126.17729793 -391.82887526 88.72126599 -297.30072021 55.25773621 C-292.12258014 53.44860244 -286.97106532 51.57207127 -281.82373047 49.67700195 C-203.16802173 20.8237546 -119.71749944 6.37749201 0 0 Z " fill="#BFA161" transform="translate(909.453125,-0.203125)"/>
<path d="M0 0 C0.33 0 0.66 0 1 0 C1.11480713 0.9480249 1.22961426 1.8960498 1.34790039 2.87280273 C10.36421799 76.51627382 35.25153675 143.50987331 78.99267578 239.32373047 C94.89555203 273.83139941 110.41490054 308.50341609 124 344 C124.26059204 344.68040344 124.52118408 345.36080688 124.78967285 346.06182861 C153.81865261 422.12519077 155.04317992 506.25842773 121.96484375 581.22509766 C120.65340757 584.15478735 119.3293363 587.0783925 118 590 C117.57203125 590.9477832 117.1440625 591.89556641 116.703125 592.87207031 C94.48836755 641.76795588 62.14271721 686.01854012 26.13671875 725.64453125 C24.69195867 727.23720096 23.25728381 728.83906856 21.83203125 730.44921875 C19.57883377 732.98954936 17.29991638 735.50187944 15 738 C14.5373877 738.50337891 14.07477539 739.00675781 13.59814453 739.52539062 C12.1428585 741.09433309 10.66851511 742.6428572 9.1875 744.1875 C8.29417969 745.12980469 7.40085937 746.07210937 6.48046875 747.04296875 C4 749 4 749 2.00390625 749.14453125 C-0.96850346 747.44683916 -3.02465363 745.04749533 -5.25 742.5 C-6.3164776 741.3100937 -7.38425437 740.12135091 -8.453125 738.93359375 C-9.02353516 738.29663574 -9.59394531 737.65967773 -10.18164062 737.00341797 C-12.7267638 734.19927178 -15.33824695 731.46073278 -17.94921875 728.71801758 C-25.06431711 721.23954098 -31.91802451 713.60146536 -38.56005859 705.70166016 C-40.03369145 703.96018491 -41.52372654 702.23417509 -43.01953125 700.51171875 C-49.94110101 692.53537015 -56.59959271 684.40066742 -63 676 C-63.76836182 674.99453125 -63.76836182 674.99453125 -64.55224609 673.96875 C-78.80453243 655.22412922 -92.4462426 635.53833065 -104 615 C-104.67506592 613.80576416 -104.67506592 613.80576416 -105.36376953 612.58740234 C-128.72912843 571.04642368 -146.83766385 525.89389388 -151 478 C-151.16435547 476.22496094 -151.16435547 476.22496094 -151.33203125 474.4140625 C-154.09356829 439.87643926 -149.68681771 405.89988357 -139 373 C-138.73348633 372.17580566 -138.46697266 371.35161133 -138.19238281 370.50244141 C-131.81776639 351.19063293 -122.13490338 333.23849345 -113.03466797 315.11230469 C-112.21060331 313.47070747 -111.38654738 311.82910588 -110.5625 310.1875 C-110.15163147 309.36930786 -109.74076294 308.55111572 -109.31744385 307.70812988 C-102.4534673 294.02872119 -95.83355628 280.26868202 -89.51074219 266.32910156 C-87.98771802 262.97293518 -86.45110485 259.62320317 -84.9140625 256.2734375 C-64.22907526 210.93287065 -45.83532868 164.46795509 -30.64202881 117.00030518 C-30.02586778 115.08059367 -29.40297254 113.16304756 -28.77978516 111.24560547 C-18.41753078 79.326045 -10.45891343 46.81366285 -3.34350586 14.03477478 C-2.31742245 9.33206684 -1.18601961 4.66505399 0 0 Z " fill="#BFA161" transform="translate(727,990)"/>
</svg>
