<svg width="24" height="27" viewBox="0 0 24 27" fill="none" xmlns="http://www.w3.org/2000/svg">
<path fill-rule="evenodd" clip-rule="evenodd" d="M11.777 0C14.758 0 17.177 2.417 17.177 5.4C17.177 8.227 15.004 10.546 12.241 10.783V6.625C12.734 6.437 13.085 5.962 13.085 5.401C13.085 4.678 12.5 4.091 11.777 4.091C11.054 4.091 10.467 4.678 10.467 5.401C10.467 5.962 10.82 6.437 11.314 6.625V10.783C8.548 10.546 6.379 8.227 6.379 5.4C6.379 2.417 8.794 0 11.777 0ZM5.4 10.125C8.384 10.125 10.804 12.545 10.804 15.525C10.804 18.353 8.63 20.669 5.862 20.905V16.75C6.358 16.565 6.712 16.085 6.712 15.526C6.712 14.803 6.124 14.216 5.401 14.216C4.675 14.216 4.088 14.803 4.088 15.526C4.088 16.086 4.444 16.565 4.94 16.75V20.906C2.172 20.669 0 18.353 0 15.526C0 12.545 2.417 10.126 5.4 10.126M17.878 10.125C20.861 10.125 23.276 12.545 23.276 15.525C23.276 18.353 21.104 20.669 18.341 20.905V16.75C18.837 16.565 19.186 16.085 19.186 15.526C19.186 14.803 18.601 14.216 17.878 14.216C17.155 14.216 16.57 14.803 16.57 15.526C16.57 16.086 16.92 16.565 17.417 16.75V20.906C14.648 20.669 12.477 18.353 12.477 15.526C12.477 12.545 14.899 10.126 17.877 10.126M7.809 26.384H15.491C13.057 24.053 11.951 21.058 11.595 17.688C11.199 21.219 9.835 24.041 7.809 26.384Z" fill="#008AC4"/>
</svg>
