<svg width="17" height="17" viewBox="0 0 17 17" fill="none" xmlns="http://www.w3.org/2000/svg">
<path d="M13.0176 13.0449C13.3396 12.7254 13.8557 12.7253 14.1777 13.0449L16.3066 14.7637H16.3438C16.7743 15.1989 16.7742 15.9045 16.3438 16.3398C15.913 16.7752 15.2149 16.7752 14.7842 16.3398L13.0176 14.3154C12.8506 14.1473 12.7569 13.9189 12.7568 13.6807C12.7568 13.4423 12.8506 13.2132 13.0176 13.0449ZM7.14844 0C9.04401 0.00010818 10.8617 0.761441 12.2021 2.11621C13.5426 3.47107 14.2958 5.30856 14.2959 7.22461C14.2959 11.2147 11.096 14.45 7.14844 14.4502C3.20069 14.4502 0 11.2148 0 7.22461C0.000175657 3.23454 3.2008 0 7.14844 0Z" fill="#555E62"/>
</svg>
