<svg width="20" height="20" viewBox="0 0 20 20" fill="none" xmlns="http://www.w3.org/2000/svg">
<path d="M18.6741 9.16949C18.3897 8.45986 17.9861 7.80403 17.4808 7.23032V4.13449C17.4813 3.88394 17.4252 3.63652 17.3167 3.41068C17.2082 3.18484 17.0502 2.9864 16.8543 2.83018C16.6584 2.67396 16.4298 2.56399 16.1855 2.50846C15.9412 2.45293 15.6875 2.45328 15.4433 2.50949C13.9225 2.87199 12.7816 3.73365 12.1708 4.96449H7.70164C6.68348 4.96148 5.677 5.18141 4.7529 5.60884C3.82879 6.03626 3.00947 6.66082 2.35247 7.43865C1.35247 7.29282 1.4733 5.79615 2.47997 5.79782C3.56914 5.79365 3.56997 4.13532 2.47997 4.13115C-0.174196 4.12282 -0.960863 7.80282 1.4233 8.88865C-0.0425297 11.9053 1.23247 15.7903 4.14664 17.3987V17.4645C4.1483 20.257 8.09664 20.8962 9.00414 18.2978H10.9566C11.8641 20.8978 15.8125 20.2553 15.8141 17.4645V17.3878C17.1092 16.6403 18.1162 15.4801 18.6741 14.0928C19.3583 13.947 19.9808 13.3862 19.9808 12.4645V10.7978C19.9808 9.87615 19.3575 9.31532 18.6741 9.16949ZM14.9808 10.7978C13.8908 10.7928 13.8908 9.13615 14.9808 9.13115C16.0708 9.13615 16.0708 10.7928 14.9808 10.7978ZM5.02414 3.72449C4.5558 -0.934681 11.4741 -1.38551 11.6475 3.29782H7.70247C6.7683 3.29782 5.86914 3.45199 5.02414 3.72449Z" fill="#555E62"/>
</svg>
