<svg width="19" height="20" viewBox="0 0 19 20" fill="none" xmlns="http://www.w3.org/2000/svg">
<path d="M9.75571 14.7558C9.83316 14.8332 9.89461 14.925 9.93654 15.0261C9.97846 15.1272 10 15.2356 10 15.345C10 15.4544 9.97846 15.5628 9.93654 15.6639C9.89461 15.765 9.83316 15.8568 9.75571 15.9342L6.17821 19.5117C5.85321 19.8367 5.42654 19.9992 4.99987 19.9992C4.57321 19.9992 4.14654 19.8367 3.82154 19.5117L0.244041 15.9342C0.16667 15.8568 0.105297 15.7649 0.0634241 15.6639C0.0215515 15.5628 8.15231e-10 15.4544 0 15.345C-8.1523e-10 15.2356 0.0215515 15.1272 0.0634241 15.0261C0.105297 14.9251 0.16667 14.8332 0.244041 14.7558C0.321411 14.6785 0.413263 14.6171 0.514353 14.5752C0.615442 14.5333 0.723789 14.5118 0.833207 14.5118C0.942626 14.5118 1.05097 14.5333 1.15206 14.5752C1.25315 14.6171 1.345 14.6785 1.42237 14.7558L4.16654 17.5V0.833333C4.16654 0.61232 4.25434 0.400358 4.41062 0.244078C4.5669 0.0877974 4.77886 0 4.99987 0C5.22089 0 5.43285 0.0877974 5.58913 0.244078C5.74541 0.400358 5.83321 0.61232 5.83321 0.833333V17.5L8.57737 14.7558C8.6547 14.6784 8.74653 14.6169 8.84763 14.575C8.94873 14.5331 9.0571 14.5115 9.16654 14.5115C9.27599 14.5115 9.38436 14.5331 9.48545 14.575C9.58655 14.6169 9.67838 14.6784 9.75571 14.7558ZM18.089 4.06583L14.5115 0.488333C14.1987 0.176492 13.7749 0.00138827 13.3332 0.00138827C12.8915 0.00138827 12.4677 0.176492 12.1549 0.488333L8.57737 4.06583C8.42112 4.22209 8.33333 4.43402 8.33333 4.655C8.33333 4.87598 8.42112 5.08791 8.57737 5.24417C8.73363 5.40042 8.94556 5.48821 9.16654 5.48821C9.38752 5.48821 9.59945 5.40042 9.75571 5.24417L12.4999 2.5V19.1667C12.4999 19.3877 12.5877 19.5996 12.744 19.7559C12.9002 19.9122 13.1122 20 13.3332 20C13.5542 20 13.7662 19.9122 13.9225 19.7559C14.0787 19.5996 14.1665 19.3877 14.1665 19.1667V2.5L16.9107 5.24417C16.9879 5.32182 17.0797 5.38345 17.1808 5.4255C17.2819 5.46755 17.3904 5.4892 17.4999 5.4892C17.6094 5.4892 17.7178 5.46755 17.8189 5.4255C17.92 5.38345 18.0118 5.32182 18.089 5.24417C18.1665 5.16684 18.2279 5.07501 18.2699 4.97391C18.3118 4.87282 18.3334 4.76444 18.3334 4.655C18.3334 4.54556 18.3118 4.43718 18.2699 4.33609C18.2279 4.23499 18.1665 4.14316 18.089 4.06583Z" fill="#131516"/>
</svg>
