<svg width="24" height="24" viewBox="0 0 24 24" fill="none" xmlns="http://www.w3.org/2000/svg">
<g clip-path="url(#clip0_141_1186)">
<path d="M23.9374 8.73761C23.8607 8.49978 23.7156 8.28979 23.5204 8.13383C23.3251 7.97787 23.0882 7.88283 22.8393 7.86055L15.9123 7.23152L13.1731 0.820266C12.9711 0.350426 12.5112 0.0463867 12.0001 0.0463867C11.4891 0.0463867 11.0291 0.350473 10.8271 0.821438L8.08796 7.23157L1.1598 7.86055C0.911176 7.88333 0.674703 7.97857 0.479701 8.13448C0.284698 8.29038 0.139741 8.50009 0.0628033 8.73761C-0.0952164 9.22362 0.0507092 9.75665 0.435797 10.0927L5.67187 14.6847L4.12786 21.4859C4.01489 21.986 4.20896 22.5029 4.6239 22.8029C4.84689 22.964 5.10785 23.046 5.37097 23.046C5.59785 23.046 5.82286 22.9849 6.02489 22.864L12.0001 19.2928L17.9732 22.864C18.4102 23.127 18.9612 23.103 19.3752 22.8029C19.5779 22.6561 19.733 22.4531 19.8212 22.2189C19.9094 21.9848 19.9268 21.7299 19.8713 21.4859L18.3273 14.6847L23.5633 10.0936C23.7517 9.92909 23.8876 9.71287 23.9541 9.47179C24.0206 9.23072 24.0148 8.97542 23.9374 8.73761Z" fill="#FFC107"/>
</g>
<defs>
<clipPath id="clip0_141_1186">
<rect width="24" height="24" fill="white"/>
</clipPath>
</defs>
</svg>
