<svg width="24" height="24" viewBox="0 0 24 24" fill="none" xmlns="http://www.w3.org/2000/svg">
<g clip-path="url(#clip0_141_1188)">
<path d="M7.73432 3.22092L6.50024 1.98685L8.25163 0.235456C8.29331 0.193781 8.34278 0.160722 8.39723 0.138167C8.45168 0.115613 8.51004 0.104004 8.56898 0.104004C8.62791 0.104004 8.68627 0.115613 8.74072 0.138167C8.79517 0.160722 8.84465 0.193781 8.88632 0.235456L9.48567 0.8348C9.52734 0.876474 9.5604 0.925948 9.58295 0.980398C9.60551 1.03485 9.61712 1.09321 9.61712 1.15214C9.61712 1.21108 9.60551 1.26944 9.58295 1.32389C9.5604 1.37834 9.52734 1.42781 9.48567 1.46949L7.73432 3.22092ZM11.0155 4.76827L9.7814 3.53419L11.5328 1.7828C11.5745 1.74112 11.6239 1.70807 11.6784 1.68551C11.7328 1.66296 11.7912 1.65135 11.8501 1.65135C11.9091 1.65135 11.9674 1.66296 12.0219 1.68551C12.0763 1.70807 12.1258 1.74112 12.1675 1.7828L12.7668 2.38214C12.8085 2.42382 12.8416 2.47329 12.8641 2.52774C12.8867 2.58219 12.8983 2.64055 12.8983 2.69949C12.8983 2.75842 12.8867 2.81678 12.8641 2.87123C12.8416 2.92568 12.8085 2.97516 12.7668 3.01683L11.0155 4.76827ZM20.8831 16.3697L22.1172 17.6038L23.8686 15.8524C23.9102 15.8107 23.9433 15.7612 23.9658 15.7068C23.9884 15.6523 24 15.594 24 15.535C24 15.4761 23.9884 15.4177 23.9658 15.3633C23.9433 15.3088 23.9102 15.2594 23.8686 15.2177L23.2692 14.6183C23.2275 14.5766 23.178 14.5436 23.1236 14.521C23.0691 14.4985 23.0108 14.4868 22.9518 14.4868C22.8929 14.4868 22.8345 14.4985 22.7801 14.521C22.7256 14.5436 22.6762 14.5766 22.6345 14.6183L20.8831 16.3697ZM19.1275 13.0885L20.3616 14.3226L22.1129 12.5712C22.1546 12.5295 22.1877 12.4801 22.2102 12.4256C22.2328 12.3712 22.2444 12.3128 22.2444 12.2539C22.2444 12.1949 22.2328 12.1366 22.2102 12.0821C22.1877 12.0277 22.1546 11.9782 22.1129 11.9365L21.5136 11.3372C21.4719 11.2955 21.4225 11.2625 21.368 11.2399C21.3136 11.2173 21.2552 11.2057 21.1963 11.2057C21.1373 11.2057 21.079 11.2173 21.0245 11.2399C20.9701 11.2625 20.9206 11.2955 20.8789 11.3372L19.1275 13.0885Z" fill="#3D6687"/>
<path d="M20.7833 21.5079L12.9497 11.0131L2.45491 3.17946C2.08718 2.90496 2.04837 2.3681 2.37288 2.04359L3.44881 0.967617C3.68435 0.732054 3.98448 0.571647 4.31121 0.50669C4.63794 0.441733 4.9766 0.475143 5.28434 0.602695L18.0637 5.89905L23.36 18.6784C23.4876 18.9861 23.521 19.3248 23.456 19.6515C23.3911 19.9783 23.2307 20.2784 22.9951 20.5139L21.9192 21.5899C21.5947 21.9145 21.0578 21.8757 20.7833 21.5079ZM8.52115 23.7669L4.91857 18.9772L0.128883 15.3746C-0.028101 15.2566 -0.0442728 15.0269 0.0946647 14.888L0.646946 14.3357C0.828685 14.154 1.0615 14.0319 1.31436 13.9859C1.56721 13.9398 1.8281 13.972 2.06224 14.0779L7.40107 16.4947L9.81785 21.8336C9.92384 22.0677 9.95595 22.3286 9.90989 22.5814C9.86384 22.8343 9.74182 23.0671 9.56009 23.2489L9.00776 23.8011C8.86887 23.94 8.63918 23.9239 8.52115 23.7669Z" fill="#CCDFED"/>
<path d="M9.81786 21.8335L8.99024 20.0052L8.47499 20.5204C8.02616 20.9693 7.28404 20.917 6.90252 20.4098L5.4359 18.4598L5.4313 18.4644L0.344942 14.6377L0.0946298 14.888C-0.0442609 15.0269 -0.028089 15.2565 0.128849 15.3746L4.91858 18.9772L8.52116 23.7669C8.63919 23.9239 8.86888 23.9401 9.00777 23.8011L9.5601 23.2488C9.74183 23.0671 9.86385 22.8342 9.90991 22.5814C9.95596 22.3285 9.92385 22.0676 9.81786 21.8335ZM23.332 20.0301C23.3536 19.9833 23.3739 19.9359 23.3911 19.8873C23.426 19.788 23.4516 19.6855 23.4674 19.5813C23.5138 19.2823 23.481 18.9702 23.3601 18.6783L22.5902 16.8206L22.5413 16.7027C22.4949 17.0742 22.326 17.4196 22.0612 17.6843L20.9853 18.7602C20.6608 19.0847 20.1239 19.0459 19.8494 18.6782L13.6243 10.3385L2.45422 1.96216L2.3729 2.04349C2.15966 2.25672 2.1043 2.56131 2.195 2.82321C2.24382 2.96537 2.33441 3.08948 2.45493 3.17931L9.27355 8.26896L12.9497 11.013L15.6937 14.6891L20.7834 21.5078C20.8732 21.6283 20.9973 21.7189 21.1395 21.7677C21.4014 21.8584 21.706 21.803 21.9193 21.5898L22.9952 20.5139C23.1351 20.3737 23.2491 20.2099 23.332 20.0301Z" fill="#BAD5E5"/>
<path d="M4.91788 20.2631C4.09785 20.6544 3.2413 19.7979 3.63261 18.9779C4.50234 17.1552 5.61323 15.4578 6.93543 13.9313L16.0215 3.44129C17.3657 1.88935 19.2584 0.917889 21.303 0.730459L21.8601 0.679412C22.6367 0.608209 23.2876 1.25902 23.2164 2.03569L23.1654 2.5928C22.9779 4.63737 22.0065 6.53006 20.4546 7.8743L9.96454 16.9604C8.43799 18.2826 6.74056 19.3934 4.91788 20.2631Z" fill="#61AFF6"/>
<path d="M23.1653 2.5928L23.2164 2.03569C23.2876 1.25907 22.6367 0.608209 21.86 0.679412L21.3029 0.730459C21.2957 0.731115 21.2884 0.732053 21.2812 0.732709C21.0889 2.76921 20.1187 4.65314 18.5726 5.99246L3.82568 20.0791C4.09357 20.3436 4.5102 20.4577 4.91787 20.2631C6.74053 19.3934 8.43795 18.2825 9.96448 16.9604L20.4544 7.8743C22.0064 6.53008 22.9779 4.63738 23.1653 2.5928Z" fill="#399AEA"/>
<path d="M18.7918 2.63704C18.6969 2.62895 18.6027 2.65886 18.5299 2.7202C18.457 2.78153 18.4116 2.86927 18.4034 2.96414C18.3953 3.059 18.4252 3.1532 18.4866 3.22603C18.5479 3.29885 18.6356 3.34434 18.7305 3.3525C19.8072 3.44465 20.4509 4.08843 20.543 5.16501C20.5501 5.24931 20.5869 5.32836 20.6467 5.38814C20.6988 5.4402 20.7656 5.475 20.8381 5.48782C20.9106 5.50065 20.9853 5.49088 21.052 5.45984C21.1188 5.42881 21.1744 5.378 21.2113 5.3143C21.2482 5.2506 21.2647 5.1771 21.2584 5.10375C21.1368 3.681 20.2146 2.75873 18.7918 2.63704Z" fill="white"/>
<path d="M20.9315 5.49218C21.0264 5.48404 21.1141 5.43856 21.1755 5.36573C21.2368 5.2929 21.2667 5.19869 21.2586 5.10382C21.199 4.40777 20.9475 3.832 20.54 3.41064C20.4294 3.64234 20.3076 3.86855 20.175 4.08846C20.3809 4.37304 20.5063 4.7343 20.5432 5.16504C20.5503 5.24933 20.587 5.32839 20.6469 5.38816C20.6839 5.42524 20.7285 5.45376 20.7777 5.47173C20.8268 5.4897 20.8794 5.49668 20.9315 5.49218Z" fill="#CCDFED"/>
</g>
<defs>
<clipPath id="clip0_141_1188">
<rect width="24" height="24" fill="white"/>
</clipPath>
</defs>
</svg>
