<svg width="24" height="24" viewBox="0 0 24 24" fill="none" xmlns="http://www.w3.org/2000/svg">
<path d="M15.7501 8.83594C19.6332 8.83594 22.7813 11.9841 22.7813 15.8672C22.7813 19.7503 19.6332 22.8984 15.7501 22.8984C14.3715 22.8984 13.0852 22.5014 12.0001 21.8156C12.6514 21.4045 13.2308 20.8892 13.7152 20.2903C14.3345 20.5758 15.0235 20.7352 15.7501 20.7352C18.4384 20.7352 20.6181 18.5555 20.6181 15.8672C20.6181 12.297 16.9096 9.97139 13.7152 11.4441C10.833 12.7708 9.95062 16.499 12.0001 18.9708C11.5374 19.5295 10.952 19.9833 10.2849 20.2903C8.2034 17.7238 8.18868 14.0287 10.2849 11.4441C11.5691 9.85594 13.542 8.83594 15.7501 8.83594Z" fill="#FCBE00"/>
<path d="M13.7152 11.4441C15.7967 14.0106 15.8114 17.7056 13.7152 20.2903C12.4309 21.8784 10.458 22.8984 8.25 22.8984C4.36688 22.8984 1.21875 19.7503 1.21875 15.8672C1.21875 11.6241 4.95361 8.34474 9.15984 8.89454C10.1699 9.02475 11.1393 9.37432 12 9.91876C11.3487 10.3299 10.7692 10.8452 10.2848 11.4441C7.0912 9.97173 3.38203 12.2964 3.38203 15.8672C3.38203 18.5555 5.56172 20.7352 8.25 20.7352C9.741 20.7352 11.097 20.0614 12 18.9708C13.491 17.1725 13.4917 14.5626 12 12.7636C12.4627 12.2049 13.0481 11.7511 13.7152 11.4441Z" fill="#FFD92E"/>
<path d="M11.293 5.9775C11.293 6.49219 11.1013 6.96375 10.6893 7.46063C10.2985 7.93191 9.66062 8.47074 9.15976 8.89454C8.55571 8.81637 7.94411 8.81637 7.34007 8.89454C6.83635 8.47477 6.18277 7.9096 5.81054 7.46063C5.39851 6.96375 5.20679 6.49219 5.20679 5.9775C5.20679 4.21449 7.23751 3.47846 8.24991 4.8825C8.5749 4.43363 9.03413 4.14844 9.59288 4.14844C10.5672 4.14844 11.293 4.947 11.293 5.9775ZM22.5848 5.71782C22.9914 6.12446 22.7597 6.89766 21.9538 6.9736C21.6451 7.00243 21.2582 6.95354 20.7529 6.91922C20.7181 6.91702 20.6854 6.90226 20.6607 6.87768C20.636 6.85309 20.6211 6.82038 20.6188 6.78563C20.5615 5.93874 20.4453 5.35974 20.8152 4.98985C21.3121 4.49133 22.1031 4.84993 21.9937 5.54438C22.2134 5.50974 22.425 5.55802 22.5848 5.71782Z" fill="#EC6385"/>
<path d="M19.0604 4.21928C19.0571 4.26869 19.036 4.31523 19.001 4.35024C18.966 4.38525 18.9195 4.40634 18.8701 4.40959C17.6806 4.49008 16.8462 4.65751 16.3182 4.13069C15.604 3.41645 16.1295 2.29783 17.1066 2.45584C16.9486 1.47831 18.0678 0.953685 18.7815 1.6674C19.3066 2.19133 19.142 3.01637 19.0604 4.21928Z" fill="#FF6E6A"/>
<path d="M11.3656 2.90789C11.3438 2.88613 11.3265 2.8603 11.3148 2.83187C11.303 2.80344 11.2969 2.77296 11.2969 2.74219C11.2969 2.71141 11.303 2.68094 11.3148 2.6525C11.3265 2.62407 11.3438 2.59824 11.3656 2.57648L12.3031 1.63898C12.3248 1.61722 12.3507 1.59995 12.3791 1.58817C12.4075 1.57639 12.438 1.57032 12.4688 1.57032C12.4996 1.57032 12.53 1.57639 12.5585 1.58817C12.5869 1.59995 12.6127 1.61722 12.6345 1.63898C12.6563 1.66074 12.6735 1.68657 12.6853 1.715C12.6971 1.74344 12.7031 1.77391 12.7031 1.80469C12.7031 1.83546 12.6971 1.86594 12.6853 1.89437C12.6735 1.9228 12.6563 1.94863 12.6345 1.97039L11.697 2.90789C11.6753 2.92967 11.6494 2.94695 11.621 2.95874C11.5926 2.97053 11.5621 2.97659 11.5313 2.97659C11.5005 2.97659 11.47 2.97053 11.4416 2.95874C11.4132 2.94695 11.3873 2.92967 11.3656 2.90789ZM13.8751 4.85156H12.9376C12.8081 4.85156 12.7032 4.74666 12.7032 4.61719C12.7032 4.48772 12.8081 4.38281 12.9376 4.38281H13.8751C14.0045 4.38281 14.1095 4.48772 14.1095 4.61719C14.1095 4.74666 14.0045 4.85156 13.8751 4.85156ZM4.80308 2.90789L3.86558 1.97039C3.84336 1.94873 3.82567 1.92287 3.81353 1.89432C3.80138 1.86576 3.79503 1.83508 3.79483 1.80406C3.79464 1.77303 3.80061 1.74227 3.81239 1.71357C3.82418 1.68486 3.84155 1.65879 3.86349 1.63685C3.88543 1.61491 3.91151 1.59754 3.94021 1.58576C3.96892 1.57398 3.99968 1.56802 4.03071 1.56822C4.06173 1.56842 4.09241 1.57477 4.12097 1.58692C4.14952 1.59907 4.17537 1.61677 4.19703 1.63898L5.13453 2.57648C5.1563 2.59824 5.17357 2.62407 5.18535 2.6525C5.19713 2.68094 5.20319 2.71141 5.20319 2.74219C5.20319 2.77296 5.19713 2.80344 5.18535 2.83187C5.17357 2.8603 5.1563 2.88613 5.13453 2.90789C5.11278 2.92967 5.08694 2.94695 5.05851 2.95874C5.03007 2.97053 4.99959 2.97659 4.9688 2.97659C4.93802 2.97659 4.90754 2.97053 4.8791 2.95874C4.85067 2.94695 4.82483 2.92967 4.80308 2.90789ZM3.56258 4.85156H2.80273C2.74057 4.85156 2.68096 4.82687 2.63701 4.78292C2.59305 4.73896 2.56836 4.67935 2.56836 4.61719C2.56836 4.55503 2.59305 4.49541 2.63701 4.45146C2.68096 4.40751 2.74057 4.38281 2.80273 4.38281H3.56258C3.62474 4.38281 3.68435 4.40751 3.72831 4.45146C3.77226 4.49541 3.79695 4.55503 3.79695 4.61719C3.79695 4.67935 3.77226 4.73896 3.72831 4.78292C3.68435 4.82687 3.62474 4.85156 3.56258 4.85156ZM8.25008 2.50781C8.18792 2.50781 8.1283 2.48312 8.08435 2.43917C8.0404 2.39521 8.0157 2.3356 8.0157 2.27344V1.33594C8.0157 1.27378 8.0404 1.21416 8.08435 1.17021C8.1283 1.12626 8.18792 1.10156 8.25008 1.10156C8.31224 1.10156 8.37185 1.12626 8.41581 1.17021C8.45976 1.21416 8.48445 1.27378 8.48445 1.33594V2.27344C8.48445 2.3356 8.45976 2.39521 8.41581 2.43917C8.37185 2.48312 8.31224 2.50781 8.25008 2.50781Z" fill="#FCBE00"/>
</svg>
