<svg width="18" height="18" viewBox="0 0 18 18" fill="none" xmlns="http://www.w3.org/2000/svg">
<path d="M12 9.0075C12 7.35 10.6575 6.0075 9 6.0075C7.3425 6.0075 6 7.35 6 9.0075C6 10.665 7.3425 12.0075 9 12.0075C10.6575 12.0075 12 10.665 12 9.0075ZM9 10.5075C8.175 10.5075 7.5 9.8325 7.5 9.0075C7.5 8.1825 8.175 7.5075 9 7.5075C9.825 7.5075 10.5 8.1825 10.5 9.0075C10.5 9.8325 9.825 10.5075 9 10.5075ZM15 0H3C1.3425 0 0 1.35 0 3.0075V3.7575C0 5.4075 1.3425 6.7575 3 6.7575V14.2575C3 16.3275 4.68 18.0075 6.75 18.0075H11.25C13.32 18.0075 15 16.3275 15 14.2575V6.7575C16.6575 6.7575 18 5.415 18 3.7575V3.0075C18 1.35 16.6575 0 15 0ZM16.5 3.75C16.5 4.575 15.825 5.25 15 5.25V3.75C15 3.3375 14.6625 3 14.25 3C13.8375 3 13.5 3.3375 13.5 3.75V14.25C13.5 15.4875 12.4875 16.5 11.25 16.5H6.75C5.5125 16.5 4.5 15.4875 4.5 14.25V3.7575C4.5 3.345 4.1625 3.0075 3.75 3.0075C3.3375 3.0075 3 3.345 3 3.7575V5.2575C2.175 5.2575 1.5 4.5825 1.5 3.7575V3.0075C1.5 2.1825 2.175 1.5075 3 1.5075H15C15.825 1.5075 16.5 2.1825 16.5 3.0075V3.7575V3.75ZM12.75 14.625C12.75 15.2475 12.2475 15.75 11.625 15.75C11.0025 15.75 10.5 15.2475 10.5 14.625C10.5 14.0025 11.0025 13.5 11.625 13.5C12.2475 13.5 12.75 14.0025 12.75 14.625ZM7.5 14.625C7.5 15.2475 6.9975 15.75 6.375 15.75C5.7525 15.75 5.25 15.2475 5.25 14.625C5.25 14.0025 5.7525 13.5 6.375 13.5C6.9975 13.5 7.5 14.0025 7.5 14.625Z" fill="#6F56AE"/>
</svg>
